<svg id="Capa_1" enable-background="new 0 0 469 469" height="30" viewBox="0 0 469 469" width="30" xmlns="http://www.w3.org/2000/svg"><g><path d="m449.5 184c0 5.51-4.48 10-10 10-5.51 0-10-4.49-10-10s4.49-10 10-10c5.52 0 10 4.49 10 10zm-370-134c0 5.523-4.477 10-10 10s-10-4.477-10-10 4.477-10 10-10 10 4.477 10 10zm45 0c0 5.523-4.477 10-10 10s-10-4.477-10-10 4.477-10 10-10 10 4.477 10 10zm45 0c0 5.523-4.477 10-10 10s-10-4.477-10-10 4.477-10 10-10 10 4.477 10 10zm280-20v109c0 5.51-4.48 10-10 10-5.51 0-10-4.49-10-10v-39h-390v241h55v-41.302c-11.065 5.689-19.871-8.246-12.071-15.721l145-145c3.905-3.905 10.237-3.905 14.143 0l62.929 62.929v-17.906c0-5.523 4.477-10 10-10h50c5.523 0 10 4.477 10 10v87.906l12.071 12.071c8.38 9.313-2.458 21.216-12.071 15.721v41.302h55v-112.01c.01-5.51 4.49-9.99 10-9.99 5.52 0 10 4.49 10 10v122c0 5.629-4.565 10-10 10h-65v98c0 5.523-4.477 10-10 10h-260c-5.523 0-10-4.477-10-10v-98h-65c-5.523 0-10-4.477-10-10v-321c0-16.542 13.458-30 30-30h370c16.541 0 29.999 13.458 29.999 30zm-186 315h-58v104h58zm61-123.094 30 30v-57.906h-30zm-210 58.285v168.809h71v-114c0-5.523 4.477-10 10-10h78c5.523 0 10 4.477 10 10v114h71v-168.809l-120-120zm-75-200.191h390v-50c0-5.514-4.486-10-10-10h-370c-5.514 0-10 4.486-10 10z"/></g></svg>