<?xml version="1.0" standalone="no"?>
<!DOCTYPE svg PUBLIC "-//W3C//DTD SVG 1.1//EN" "http://www.w3.org/Graphics/SVG/1.1/DTD/svg11.dtd" >
<svg>
<metadata>
Created by FontForge 20110222 at Mon May 14 18:54:41 2012
 By www-data
Copyright (c) 2009 by studio kmzero. All rights reserved.
</metadata>
<defs>
<font id="Duepuntozero-ExtraBold" horiz-adv-x="430" >
  <font-face 
    font-family="Duepuntozero"
    font-weight="800"
    font-stretch="normal"
    units-per-em="1000"
    panose-1="2 0 9 3 0 0 0 2 0 4"
    ascent="800"
    descent="-200"
    x-height="496"
    cap-height="664"
    bbox="-93 -192 880 896"
    underline-thickness="50"
    underline-position="-50"
    unicode-range="U+0020-2122"
  />
    <missing-glyph />
    <glyph glyph-name="c" unicode="c" horiz-adv-x="415" 
d="M29 312q0 40 15.5 74t41.5 59.5t61.5 40t74.5 14.5q7 0 28.5 -3t47.5 -14.5t51.5 -35t42.5 -64.5q3 -5 4 -11t1 -11q0 -26 -18 -44t-44 -18q-22 0 -34 12t-23 27t-24 27t-36 12q-28 0 -47.5 -19t-19.5 -46v-128q0 -27 19.5 -46t47.5 -19q23 0 35.5 12t23 27t23 27
t35.5 12q26 0 44 -18.5t18 -42.5q0 -12 -6 -24q-19 -42 -46 -65.5t-53 -35t-46 -13.5t-26 -2q-39 0 -74 15t-61 41t-41 60t-15 72v128z" />
    <glyph glyph-name="d" unicode="d" horiz-adv-x="434" 
d="M283 591q0 26 18.5 44t43.5 18q24 0 42.5 -18t18.5 -44v-407q0 -38 -15 -72.5t-41 -60t-60 -40.5t-73 -15t-73.5 15t-60 40.5t-40 60t-14.5 72.5v128q0 38 15 72.5t41 60t60.5 40.5t73.5 15q16 0 33 -4t31 -9v104zM151 184q0 -27 18.5 -46t47.5 -19q26 0 46 19t20 46v128
q0 27 -19.5 46t-46.5 19q-28 0 -47 -19t-19 -46v-128z" />
    <glyph glyph-name="e" unicode="e" 
d="M29 312q0 38 15 72.5t40.5 60t60 40.5t73.5 15t73 -15t59.5 -40.5t40.5 -60t15 -72.5v-64q0 -26 -18 -43.5t-42 -17.5h-194q0 -29 19.5 -48.5t46.5 -19.5q10 0 23 2.5t24 16.5q9 11 24.5 21.5t34.5 10.5q20 0 38.5 -17.5t18.5 -41.5q0 -18 -12.5 -38t-34 -37t-51.5 -28.5
t-65 -11.5q-39 0 -73 15t-60 40.5t-41 60t-15 72.5v128zM152 310h132q0 29 -19.5 48t-46.5 19q-28 0 -47 -19t-19 -48z" />
    <glyph glyph-name="n" unicode="n" horiz-adv-x="436" 
d="M32 312q0 38 15 72.5t40.5 60t60 40.5t73.5 15t73 -15t59.5 -40.5t40.5 -60t15 -72.5v-254q0 -26 -18.5 -44t-42.5 -18q-25 0 -43 18t-18 44v254q0 27 -19.5 46t-46.5 19q-28 0 -47.5 -19t-19.5 -46v-254q0 -26 -18 -44t-42 -18q-26 0 -44 18t-18 44v254z" />
    <glyph glyph-name="o" unicode="o" 
d="M29 312q0 38 15 72.5t40.5 60t60 40.5t73.5 15t73 -15t59.5 -40.5t40.5 -60t15 -72.5v-128q0 -38 -14.5 -72.5t-40 -60t-60 -40.5t-73.5 -15t-73 15t-60 40.5t-41 60t-15 72.5v128zM152 184q0 -27 19.5 -46t46.5 -19q28 0 47 19t19 46v128q0 27 -19.5 46t-46.5 19
q-28 0 -47 -19t-19 -46v-128z" />
    <glyph glyph-name="p" unicode="p" horiz-adv-x="433" 
d="M32 312q0 38 15 72.5t40.5 60t60 40.5t73.5 15t73 -15t59.5 -40.5t40.5 -60t15 -72.5v-128q0 -38 -14.5 -72.5t-40 -60t-60 -40.5t-73.5 -15q-33 0 -67 13v-104q0 -26 -18 -44t-42 -18q-26 0 -44 18t-18 44v407zM154 184q0 -27 19.5 -46t47.5 -19q27 0 46.5 19t19.5 46
v128q0 27 -19.5 46t-46.5 19q-28 0 -47.5 -19t-19.5 -46v-128z" />
    <glyph glyph-name="q" unicode="q" horiz-adv-x="433" 
d="M29 312q0 38 15 72.5t41 60t60 40.5t73 15t73.5 -15t60 -40.5t40 -60t14.5 -72.5v-407q0 -26 -17.5 -44t-43.5 -18q-25 0 -43.5 18t-18.5 44v104q-14 -5 -31 -9t-34 -4q-39 0 -73.5 15t-60 40.5t-40.5 60t-15 72.5v128zM151 184q0 -27 19 -46t48 -19q26 0 45.5 19
t19.5 46v128q0 27 -19 46t-46 19q-28 0 -47.5 -19t-19.5 -46v-128z" />
    <glyph glyph-name="u" unicode="u" horiz-adv-x="436" 
d="M32 439q0 26 18 43.5t44 17.5q24 0 42 -17.5t18 -43.5v-255q0 -27 19.5 -46t47.5 -19q27 0 46.5 19t19.5 46v255q0 26 18 43.5t43 17.5q24 0 42.5 -17.5t18.5 -43.5v-255q0 -38 -15 -72.5t-40.5 -60t-59.5 -40.5t-73 -15t-73.5 15t-60 40.5t-40.5 60t-15 72.5v255z" />
    <glyph glyph-name="h" unicode="h" horiz-adv-x="437" 
d="M33 591q0 26 18 44t44 18q23 0 41.5 -18t18.5 -44v-104q32 13 67 13q39 0 73 -15t59.5 -40.5t40.5 -60t15 -72.5v-254q0 -26 -18.5 -44t-42.5 -18q-25 0 -43 18t-18 44v254q0 27 -20 46t-46 19q-29 0 -47 -18.5t-20 -44.5v-256q0 -26 -18.5 -44t-41.5 -18q-26 0 -44 18
t-18 44v533z" />
    <glyph glyph-name="g" unicode="g" horiz-adv-x="433" 
d="M29 312q0 38 14.5 72.5t40 60t60 40.5t73.5 15q38 0 72.5 -15t60 -40.5t40.5 -60t15 -72.5v-281q0 -39 -14.5 -73t-40 -59.5t-59.5 -40.5t-74 -15q-26 0 -44 18t-18 44q0 24 18 42t44 18q20 0 36.5 11.5t24.5 30.5q-31 -11 -61 -11q-39 0 -73 15t-59.5 40.5t-40.5 60
t-15 72.5v128zM151 184q0 -27 19 -46t47 -19q26 0 44.5 18t20.5 44v131q0 27 -19 46t-46 19q-29 0 -47.5 -19t-18.5 -46v-128z" />
    <glyph glyph-name="i" unicode="i" horiz-adv-x="188" 
d="M33 439q0 26 18 43.5t42 17.5q25 0 43.5 -17.5t18.5 -43.5v-381q0 -26 -18 -44t-44 -18q-24 0 -42 18t-18 44v381zM33 591q0 26 18 44t42 18q25 0 43.5 -18t18.5 -44v-20q0 -24 -18 -42t-44 -18q-24 0 -42 18t-18 42v20z" />
    <glyph glyph-name="r" unicode="r" horiz-adv-x="350" 
d="M33 435q0 26 17.5 43.5t42.5 17.5q24 0 42 -16q21 11 42 15.5t47 4.5l20 -2t43.5 -10t43 -24t19.5 -44q0 -27 -18 -44t-44 -17q-19 0 -34 9t-33 9q-28 0 -46 -18t-20 -44v-254q0 -26 -18 -44t-44 -18q-24 0 -42 18t-18 44v374z" />
    <glyph glyph-name="m" unicode="m" horiz-adv-x="663" 
d="M32 312q0 38 13 72.5t37 60t57 40.5t72 15q35 0 65.5 -12t53.5 -33q46 45 119 45q39 0 72 -15t56.5 -40.5t37 -60t13.5 -72.5v-254q0 -26 -18.5 -44t-42.5 -18q-26 0 -44 18t-18 44v254q0 27 -15.5 46t-40.5 19q-28 0 -43 -19t-15 -46v-254q0 -26 -18.5 -44t-42.5 -18
q-25 0 -43 18t-18 44v254q0 27 -16 46t-42 19t-41 -19t-15 -46v-254q0 -26 -18.5 -44t-43.5 -18t-43 18t-18 44v254z" />
    <glyph glyph-name="t" unicode="t" horiz-adv-x="405" 
d="M33 582q0 26 18 43.5t43 17.5q24 0 42.5 -17.5t18.5 -43.5v-86h145q26 0 44 -17.5t18 -43.5q0 -24 -18 -42.5t-44 -18.5h-145v-190q0 -27 19.5 -46t47.5 -19q23 0 35.5 12t23 27t23 27t35.5 12q26 0 43.5 -18.5t17.5 -42.5q0 -14 -5 -24q-19 -43 -46.5 -66.5t-54 -34.5
t-47 -13t-25.5 -2q-38 0 -72 15t-60 40.5t-41.5 60t-15.5 72.5v398z" />
    <glyph glyph-name="s" unicode="s" horiz-adv-x="419" 
d="M34 348q0 34 13.5 62t37 48t56.5 31t72 11q23 0 52 -7.5t54.5 -22t42.5 -36t17 -49.5q0 -25 -17 -43t-42 -18q-17 0 -29 8.5t-23.5 18t-24 18t-30.5 8.5q-26 0 -41.5 -8.5t-15.5 -20.5q0 -17 15 -23.5t42 -6.5q39 0 73 -10t59.5 -30.5t40.5 -50.5t15 -69q0 -41 -15 -71.5
t-41 -50.5t-60.5 -30t-73.5 -10q-26 0 -58 11.5t-60.5 31t-48 44.5t-19.5 53q0 24 17.5 42.5t44.5 18.5q19 0 34 -10.5t22 -26.5q8 -20 29 -30.5t41 -10.5q27 0 46.5 8t19.5 31q0 22 -19 30t-47 8q-39 0 -72 7.5t-56.5 25.5t-37 47t-13.5 72z" />
    <glyph glyph-name="l" unicode="l" horiz-adv-x="188" 
d="M33 592q0 26 18 43.5t42 17.5q25 0 43.5 -17.5t18.5 -43.5v-530q0 -26 -18 -44t-44 -18q-24 0 -42 18t-18 44v530z" />
    <glyph glyph-name="j" unicode="j" horiz-adv-x="189" 
d="M-33 -35q27 0 46.5 18.5t19.5 44.5v411q0 26 18.5 43.5t43.5 17.5t43 -17.5t18 -43.5v-408q0 -39 -15 -73.5t-41 -60t-60 -40t-73 -14.5q-25 0 -42.5 18t-17.5 44q0 24 17.5 42t42.5 18zM33 591q0 26 18 44t44 18q24 0 42.5 -18t18.5 -44v-22q0 -24 -18 -42t-43 -18
t-43.5 18t-18.5 42v22z" />
    <glyph glyph-name="f" unicode="f" horiz-adv-x="400" 
d="M33 465q0 40 15 74t41 59.5t61 40t74 14.5q7 0 28 -2.5t46.5 -14t52 -35t44.5 -65.5q3 -6 4 -12.5t1 -10.5q0 -26 -17.5 -43.5t-43.5 -17.5q-23 0 -35.5 12.5t-22.5 27t-22.5 27t-36.5 12.5q-28 0 -47.5 -19.5t-19.5 -46.5v-155h69q25 0 43 -18.5t18 -43.5
q0 -26 -18 -43.5t-43 -17.5h-69v-129q0 -26 -18.5 -44t-42.5 -18q-25 0 -43 18t-18 44v407z" />
    <glyph glyph-name="w" unicode="w" horiz-adv-x="663" 
d="M32 439q0 26 18.5 43.5t42.5 17.5q26 0 44 -17.5t18 -43.5v-255q0 -27 15.5 -46t40.5 -19q28 0 43 19t15 46v255q0 26 18.5 43.5t42.5 17.5q26 0 43.5 -17.5t17.5 -43.5v-255q0 -27 16 -46t42 -19t41 19t15 46v255q0 26 18.5 43.5t43.5 17.5t43 -17.5t18 -43.5v-255
q0 -38 -13 -72.5t-37 -60t-57 -40.5t-72 -15q-36 0 -66 12t-53 33q-48 -45 -119 -45q-39 0 -72 15t-56.5 40.5t-37 60t-13.5 72.5v255z" />
    <glyph glyph-name="v" unicode="v" horiz-adv-x="476" 
d="M21 415q-2 4 -3.5 11t-1.5 13q0 23 16 42t45 19q20 0 35 -11t21 -25l106 -252q21 48 37 85.5t29 67.5t23 54t19 45q15 36 56 36q27 0 43 -19t16 -42q0 -13 -4 -24l-163 -381q-8 -17 -22.5 -27.5t-33.5 -10.5q-20 0 -33.5 11t-21.5 28z" />
    <glyph glyph-name="k" unicode="k" horiz-adv-x="421" 
d="M33 592q0 26 18 43.5t44 17.5q24 0 42 -17.5t18 -43.5v-212l131 107q16 13 39 13q22 0 40.5 -17t18.5 -45t-21 -48l-121 -98l163 -196q15 -18 15 -39q0 -23 -18 -42t-43 -19q-13 0 -26 5.5t-22 16.5q-42 48 -78 92t-78 93v-145q0 -26 -18 -44t-42 -18q-25 0 -43.5 18
t-18.5 44v534z" />
    <glyph glyph-name="x" unicode="x" horiz-adv-x="495" 
d="M48 400q-8 9 -11 19.5t-3 19.5q0 24 17.5 42.5t45.5 18.5t46 -21q15 -18 28 -34.5t25.5 -32.5t25 -32.5t27.5 -34.5q27 32 53 66.5t52 66.5q18 22 47 22q28 0 45.5 -18.5t17.5 -42.5q0 -9 -4 -20t-10 -19q-31 -40 -61.5 -75.5t-61.5 -77.5l123 -150q7 -8 10.5 -19
t3.5 -20q0 -23 -17.5 -42.5t-45.5 -19.5q-12 0 -25.5 6t-21.5 16q-26 31 -42.5 51.5t-28 34.5t-19 23.5t-15.5 20.5l-106 -128q-9 -11 -21 -17.5t-25 -6.5q-28 0 -45.5 19.5t-17.5 42.5q0 11 4 21t9 18l121 151z" />
    <glyph glyph-name="z" unicode="z" horiz-adv-x="451" 
d="M107 374q-26 0 -43.5 18t-17.5 43q0 24 17.5 42.5t43.5 18.5h242q29 0 50 -15t21 -44q0 -8 -3 -17.5t-10 -19.5l-193 -278h148q25 0 43 -18t18 -42q0 -25 -18 -43.5t-43 -18.5h-262q-30 0 -49.5 17.5t-19.5 45.5q0 8 4 16t9 16l195 279h-132z" />
    <glyph glyph-name="y" unicode="y" horiz-adv-x="436" 
d="M32 439q0 26 18 43.5t44 17.5q25 0 43.5 -17.5t18.5 -43.5v-255q0 -27 18.5 -46t46.5 -19q27 0 46.5 19t19.5 46v255q0 26 18 43.5t44 17.5q24 0 42 -17.5t18 -43.5v-255q0 -63 -35.5 -111t-91.5 -67v-101q0 -26 -17.5 -44t-43.5 -18q-24 0 -42.5 18t-18.5 44v101
q-55 19 -91.5 67t-36.5 111v255z" />
    <glyph glyph-name="O" unicode="O" horiz-adv-x="551" 
d="M28 436q0 51 19.5 96t53.5 78t78.5 52.5t95.5 19.5q50 0 95 -19.5t78.5 -52.5t53.5 -78t20 -96v-212q0 -50 -19.5 -94.5t-53.5 -78t-78.5 -53t-95.5 -19.5t-95.5 19.5t-78.5 53t-53.5 78t-19.5 94.5v212zM155 224q0 -25 9.5 -46.5t26 -37.5t38 -25.5t46.5 -9.5t47 9.5
t38 25.5t25.5 37.5t9.5 46.5v212q0 25 -9.5 46.5t-26 37.5t-38 25.5t-46.5 9.5t-47 -9.5t-38 -25.5t-25.5 -37.5t-9.5 -46.5v-212z" />
    <glyph glyph-name="Q" unicode="Q" horiz-adv-x="544" 
d="M28 437q0 51 19.5 95.5t53.5 78t78.5 52.5t95.5 19q50 0 95 -19t78.5 -52.5t53.5 -78t20 -95.5v-216q0 -43 -13.5 -81.5t-38 -69.5t-58.5 -53.5t-74 -32.5v-38q0 -26 -18 -44.5t-45 -18.5q-25 0 -43.5 18.5t-18.5 44.5v38q-41 10 -74.5 32.5t-58.5 53.5t-38.5 69.5
t-13.5 81.5v216zM155 221q0 -25 9.5 -46.5t26 -37.5t38 -25.5t46.5 -9.5t47 9.5t38 25.5t25.5 37.5t9.5 46.5v216q0 25 -9.5 46.5t-26 37.5t-38 25.5t-46.5 9.5t-47 -9.5t-38 -25.5t-25.5 -37.5t-9.5 -46.5v-216z" />
    <glyph glyph-name="U" unicode="U" horiz-adv-x="551" 
d="M32 597q0 26 18.5 44.5t44.5 18.5q25 0 44 -18.5t19 -44.5v-371q0 -25 9.5 -46.5t26 -37.5t38.5 -25.5t47 -9.5t47 9.5t38 25.5t25.5 37.5t9.5 46.5v371q0 26 18.5 44.5t44.5 18.5q25 0 44 -18.5t19 -44.5v-371q0 -50 -19.5 -94.5t-52.5 -78t-78 -53t-96 -19.5
t-95.5 19.5t-78.5 53t-53.5 78t-19.5 94.5v371z" />
    <glyph glyph-name="N" unicode="N" horiz-adv-x="550" 
d="M32 436q0 50 19.5 95t52.5 78.5t78 53t96 19.5t95.5 -19.5t78 -53t53 -78.5t19.5 -95v-377q0 -26 -18 -44.5t-44 -18.5q-25 0 -44 18.5t-19 44.5v377q0 25 -9.5 46.5t-26 37.5t-38.5 25.5t-47 9.5t-46.5 -9.5t-38 -25.5t-26 -37.5t-9.5 -46.5v-377q0 -26 -18.5 -44.5
t-44.5 -18.5t-44.5 18.5t-18.5 44.5v377z" />
    <glyph glyph-name="I" unicode="I" horiz-adv-x="196" 
d="M35 601q0 26 18.5 44.5t44.5 18.5q25 0 44 -18.5t19 -44.5v-542q0 -26 -18.5 -44.5t-44.5 -18.5q-25 0 -44 18.5t-19 44.5v542z" />
    <glyph glyph-name="J" unicode="J" horiz-adv-x="298" 
d="M70 122q27 0 47.5 18.5t20.5 45.5v415q0 26 18.5 44.5t44.5 18.5t44 -18.5t18 -44.5v-415q0 -40 -14.5 -74.5t-40 -60t-61 -40.5t-77.5 -15q-26 0 -44.5 18.5t-18.5 44.5t18.5 44.5t44.5 18.5z" />
    <glyph glyph-name="M" unicode="M" horiz-adv-x="863" 
d="M32 436q0 50 17.5 95t49 78.5t74.5 53t94 19.5q50 0 92 -19t71 -48q31 29 71 48t89 19q51 0 94.5 -19.5t75 -53t49.5 -78.5t18 -95v-377q0 -26 -18.5 -44.5t-43.5 -18.5q-27 0 -45.5 18.5t-18.5 44.5v377q0 25 -8 46.5t-22.5 37.5t-35 25.5t-45.5 9.5q-24 0 -42 -9.5
t-30.5 -25.5t-19 -37.5t-6.5 -46.5v-377q0 -26 -18 -44.5t-45 -18.5q-26 0 -44.5 18.5t-18.5 44.5v378q0 49 -25.5 83.5t-73.5 34.5q-24 0 -44.5 -9.5t-35 -25.5t-22.5 -37.5t-8 -46.5v-377q0 -26 -18.5 -44.5t-44.5 -18.5t-44 18.5t-18 44.5v377z" />
    <glyph glyph-name="C" unicode="C" horiz-adv-x="524" 
d="M28 437q0 51 19.5 95.5t53 78t78.5 52.5t96 19q75 0 135 -40.5t89 -104.5q5 -8 6.5 -16.5t1.5 -16.5q0 -23 -16.5 -42.5t-45.5 -19.5q-18 0 -34 9.5t-24 28.5q-14 32 -43.5 54t-68.5 22q-25 0 -47 -9.5t-38.5 -25.5t-26 -37.5t-9.5 -46.5v-213q0 -25 9.5 -46.5t26 -37.5
t38.5 -25.5t47 -9.5q38 0 68.5 22t44.5 55q8 22 23.5 29.5t33.5 7.5q29 0 45.5 -19.5t16.5 -42.5q0 -14 -5 -24q-14 -32 -37 -60t-52.5 -49t-64.5 -33t-73 -12q-51 0 -95.5 19.5t-78.5 53t-53.5 78t-19.5 94.5v213z" />
    <glyph glyph-name="G" unicode="G" horiz-adv-x="544" 
d="M28 436q0 51 19.5 96t53.5 78t78.5 52.5t95.5 19.5q37 0 71.5 -12t64.5 -33t53.5 -49t38.5 -60q2 -5 3 -12t1 -13q0 -23 -16 -42.5t-46 -19.5q-17 0 -32.5 9t-23.5 28q-14 34 -45 55.5t-69 21.5q-25 0 -47 -9.5t-38 -25.5t-25.5 -37.5t-9.5 -46.5v-212q0 -25 9.5 -46.5
t26 -37.5t38 -25.5t46.5 -9.5t47 9.5t38 25.5t25.5 37.5t9.5 46.5v18h-42q-26 0 -44.5 18t-18.5 45q0 25 18.5 43.5t44.5 18.5h105q26 0 45 -18t19 -44v-81q0 -50 -19.5 -94.5t-53.5 -78t-78.5 -53t-95.5 -19.5t-95.5 19.5t-78.5 53t-53.5 78t-19.5 94.5v212z" />
    <glyph glyph-name="T" unicode="T" horiz-adv-x="515" 
d="M76 535q-26 0 -44 18t-18 44t18 44.5t44 18.5h367q27 0 45 -18.5t18 -44.5q0 -25 -18 -43.5t-45 -18.5h-121v-476q0 -26 -18.5 -44.5t-44.5 -18.5q-25 0 -44 18.5t-19 44.5v476h-120z" />
    <glyph glyph-name="H" unicode="H" horiz-adv-x="557" 
d="M35 601q0 26 18.5 44.5t44.5 18.5t44 -18.5t18 -44.5v-218h242v218q0 26 18.5 44.5t44.5 18.5t44 -18.5t18 -44.5v-542q0 -26 -18.5 -44.5t-43.5 -18.5q-26 0 -44.5 18.5t-18.5 44.5v199h-242v-199q0 -26 -18.5 -44.5t-43.5 -18.5q-27 0 -45 18.5t-18 44.5v542z" />
    <glyph glyph-name="P" unicode="P" horiz-adv-x="531" 
d="M35 597q0 26 18.5 44.5t45.5 18.5h183q50 0 95 -19t78.5 -52t53 -77t19.5 -95t-19.5 -95t-52.5 -77t-78 -52t-96 -19h-121v-115q0 -26 -18 -44.5t-44 -18.5t-45 18.5t-19 44.5v538zM161 535v-235h121q25 0 47 9t38 25t25.5 37.5t9.5 45.5t-9.5 45.5t-26 37.5t-38 25.5
t-46.5 9.5h-121z" />
    <glyph glyph-name="W" unicode="W" horiz-adv-x="863" 
d="M32 601q0 26 18.5 44.5t43.5 18.5q27 0 45 -18.5t18 -44.5v-376q0 -25 8 -46.5t22.5 -37.5t35 -25.5t45.5 -9.5q48 0 73 34.5t25 84.5v376q0 26 18.5 44.5t44.5 18.5q27 0 45 -18.5t18 -44.5v-377q0 -49 26 -83.5t73 -34.5q24 0 44.5 9.5t35 25.5t22.5 37.5t8 46.5v376
q0 26 19 44.5t45 18.5t44 -18.5t18 -44.5v-376q0 -50 -17.5 -94.5t-49 -78t-75 -53t-94.5 -19.5q-50 0 -91.5 18.5t-70.5 46.5q-32 -30 -70.5 -47.5t-90.5 -17.5q-51 0 -94 19.5t-74.5 53t-49.5 78t-18 94.5v376z" />
    <glyph glyph-name="E" unicode="E" horiz-adv-x="555" 
d="M35 597q0 26 18 44.5t45 18.5h367q26 0 44 -18.5t18 -44.5q0 -25 -18 -43.5t-44 -18.5h-305v-152h198q26 0 44 -18t18 -44t-18 -44.5t-44 -18.5h-198v-133h305q26 0 44 -18t18 -44t-18 -44.5t-44 -18.5h-367q-26 0 -44.5 18.5t-18.5 44.5v534z" />
    <glyph glyph-name="F" unicode="F" horiz-adv-x="525" 
d="M35 597q0 26 17.5 43.5t42.5 19.5h370q26 0 44.5 -18.5t18.5 -44.5q0 -25 -18.5 -43.5t-44.5 -18.5h-304v-152h197q26 0 44 -18t18 -44t-18 -44.5t-44 -18.5h-197v-199q0 -26 -18 -44.5t-44 -18.5t-45 18.5t-19 44.5v538z" />
    <glyph glyph-name="D" unicode="D" horiz-adv-x="550" 
d="M35 597q0 26 18 44.5t45 18.5h183q51 0 96 -19t78.5 -52t52.5 -77t19 -95v-174q0 -51 -19 -95t-52.5 -77t-78 -52t-95.5 -19h-184q-26 0 -44.5 18.5t-18.5 44.5v534zM160 535v-410h122q25 0 47 9.5t38 25.5t25.5 37.5t9.5 45.5v174q0 24 -9.5 45.5t-25.5 37.5t-38.5 25.5
t-47.5 9.5h-121z" />
    <glyph glyph-name="B" unicode="B" horiz-adv-x="543" 
d="M35 597q0 26 18 44.5t45 18.5h183q31 0 58.5 -11.5t48 -32t32.5 -47.5t12 -58q0 -20 -3 -34.5t-11 -29.5q51 -33 80 -86t29 -118q0 -51 -19 -95t-52.5 -77t-78 -52t-95.5 -19h-184q-26 0 -44.5 18.5t-18.5 44.5v534zM402 243q0 24 -10 45.5t-26.5 37t-38.5 25t-46 9.5
h-121v-235h122q25 0 47 9.5t38 25.5t25.5 37.5t9.5 45.5zM160 535v-49h122q10 0 17.5 7t7.5 18q0 10 -7.5 17t-18.5 7h-121z" />
    <glyph glyph-name="R" unicode="R" horiz-adv-x="558" 
d="M35 597q0 26 18.5 44.5t44.5 18.5h184q51 0 95.5 -19t78 -52t52.5 -77t19 -95q0 -64 -27 -116.5t-77 -84.5q26 -32 45 -53.5t31 -35.5q14 -16 22 -26q5 -5 9.5 -17.5t4.5 -23.5q0 -26 -18 -45t-45 -19t-47 20l-125 147q-9 11 -17 11h-122v-114q0 -26 -19 -44.5t-44 -18.5
q-26 0 -44.5 18.5t-18.5 44.5v537zM161 535v-235h121q25 0 46.5 9t38 25t26 37.5t9.5 45.5t-9.5 45.5t-25.5 37.5t-38 25.5t-47 9.5h-121z" />
    <glyph glyph-name="L" unicode="L" horiz-adv-x="525" 
d="M35 601q0 26 18.5 44.5t45.5 18.5q25 0 43.5 -18.5t18.5 -44.5v-476h305q26 0 44 -18t18 -44t-18 -44.5t-44 -18.5h-367q-26 0 -45 18.5t-19 44.5v538z" />
    <glyph glyph-name="K" unicode="K" horiz-adv-x="508" 
d="M35 601q0 26 18.5 44.5t45.5 18.5q25 0 43.5 -18.5t18.5 -44.5v-96q58 47 93 78t56.5 49t34.5 25t29 7q24 0 43 -17.5t19 -45.5q0 -14 -5.5 -29t-16.5 -24l-166 -133q40 -51 82.5 -98.5t83.5 -97.5l98 -120q16 -21 16 -41q0 -24 -18.5 -43t-44.5 -19q-28 0 -49 21
l-255 305v-263q0 -26 -18 -44.5t-44 -18.5t-45 18.5t-19 44.5v542z" />
    <glyph glyph-name="Y" unicode="Y" horiz-adv-x="545" 
d="M28 601q0 26 18.5 44.5t44.5 18.5q25 0 44 -18.5t19 -44.5v-179q0 -24 9.5 -45.5t26 -37.5t38.5 -25.5t47 -9.5t46.5 9.5t37.5 25.5t25.5 37.5t9.5 45.5v179q0 26 19 44.5t45 18.5q25 0 44 -18.5t19 -44.5v-179q0 -42 -13.5 -80.5t-38 -69.5t-58.5 -53t-74 -32v-128
q0 -26 -18 -44.5t-44 -18.5t-44.5 18.5t-18.5 44.5v128q-41 10 -74.5 32t-58 53t-38 69.5t-13.5 80.5v179z" />
    <glyph glyph-name="X" unicode="X" horiz-adv-x="598" 
d="M47 562q-13 17 -13 39q0 25 17.5 44t46.5 19q13 0 26 -5.5t22 -17.5l156 -205l154 205q9 12 22 17.5t26 5.5q29 0 46.5 -19t17.5 -44q0 -10 -2.5 -19.5t-10.5 -19.5l-175 -231l175 -232q8 -10 10.5 -19.5t2.5 -20.5q0 -24 -17.5 -43.5t-46.5 -19.5q-13 0 -25.5 6.5
t-22.5 17.5l-154 206q-39 -50 -78 -103.5t-78 -102.5q-8 -11 -22 -17.5t-26 -6.5q-29 0 -46.5 19.5t-17.5 43.5q0 9 3 20t10 20l175 232z" />
    <glyph glyph-name="Z" unicode="Z" horiz-adv-x="571" 
d="M106 535q-27 0 -45 18t-18 44t18 44.5t45 18.5h357q31 0 52 -15t21 -46q0 -17 -9 -35l-310 -439h263q26 0 44.5 -18t18.5 -44t-18.5 -44.5t-44.5 -18.5h-378q-32 0 -51 18t-19 44q0 7 3 17.5t9 19.5l308 436h-246z" />
    <glyph glyph-name="V" unicode="V" horiz-adv-x="615" 
d="M20 574q-5 10 -5 24q0 24 17 43.5t45 19.5q18 0 34 -10t24 -28l173 -406q53 122 96.5 221.5t78.5 184.5q8 17 22.5 27.5t34.5 10.5q29 0 46 -19.5t17 -43.5q0 -13 -6 -25l-231 -539q-9 -18 -24.5 -28t-33.5 -10q-38 0 -57 38z" />
    <glyph glyph-name="A" unicode="A" horiz-adv-x="615" 
d="M251 626q19 38 57 38q20 0 35.5 -11.5t22.5 -26.5l231 -544q2 -5 4 -12.5t2 -11.5q0 -22 -17 -42t-46 -20q-20 0 -34.5 11t-22.5 27l-57 138h-233l-58 -138q-18 -38 -58 -38q-28 0 -45 20t-17 42q0 15 5 25zM308 444q-15 -35 -24.5 -58t-16.5 -38.5t-12.5 -26.5
t-10.5 -23h128z" />
    <glyph glyph-name="ampersand" unicode="&#x26;" horiz-adv-x="592" 
d="M513 473q26 0 43.5 -18.5t17.5 -42.5q0 -25 -17.5 -43t-43.5 -18h-20v-116q0 -49 -17.5 -92.5t-48.5 -76t-73 -51.5t-91 -19t-92.5 19t-76.5 51.5t-52 76t-19 92.5q0 61 29.5 113t77.5 85q-8 14 -16 30t-8 42q0 34 13.5 62.5t35.5 49t50.5 32t58.5 11.5h86q24 0 42 -17.5
t18 -43.5q0 -25 -18 -43.5t-42 -18.5h-86q-11 0 -23 -7.5t-12 -24.5t10.5 -24.5t19.5 -7.5h112q0 28 17.5 45.5t43.5 17.5q24 0 42.5 -17.5t18.5 -45.5h20zM263 351q-24 0 -45.5 -9.5t-37 -25t-25 -36.5t-9.5 -45t9 -45t25 -37t37.5 -25t45.5 -9q23 0 43 9t34.5 25t22.5 37
t8 45v116h-108z" />
    <glyph glyph-name="zero" unicode="0" horiz-adv-x="468" 
d="M30 478q0 42 16 79t43.5 65t65 44t79.5 16q43 0 81 -16t66 -44t44 -65t16 -79v-293q0 -42 -16 -79.5t-44 -65t-66 -44t-81 -16.5q-42 0 -79 16.5t-64.5 44t-44 65t-16.5 79.5v293zM319 478q0 17 -6.5 32t-18 26.5t-27 18t-33.5 6.5q-34 0 -58 -24.5t-24 -58.5v-293
q0 -35 24 -58.5t58 -23.5q36 0 60.5 23.5t24.5 58.5v293z" />
    <glyph glyph-name="eight" unicode="8" horiz-adv-x="487" 
d="M51 486q0 40 15.5 76t42 63t62 42.5t75.5 15.5q41 0 77 -15.5t63 -42.5t42.5 -63t15.5 -76q0 -35 -10.5 -66t-32.5 -57q29 -31 49 -74.5t20 -88.5t-17.5 -85.5t-47.5 -70.5t-71 -47.5t-88 -17.5q-45 0 -85 17.5t-70 47.5t-48 70.5t-18 86.5q0 47 19.5 88.5t49.5 72.5
q-43 50 -43 124zM174 489q0 -29 21 -50t52 -21t52.5 21t21.5 50t-21.5 50t-52.5 21t-52 -21t-21 -50zM148 198q0 -41 28.5 -68.5t70.5 -27.5t71 27.5t29 68.5q0 20 -8 38t-21.5 31t-31.5 20.5t-39 7.5q-42 0 -70.5 -28t-28.5 -69z" />
    <glyph glyph-name="three" unicode="3" horiz-adv-x="455" 
d="M46 493q0 37 14.5 70.5t39.5 58t58 39t70 14.5q38 0 71.5 -14t58 -39t39 -58t14.5 -70q0 -28 -3.5 -48t-10.5 -36t-16.5 -28t-22.5 -24q37 -32 56.5 -80.5t19.5 -91.5q0 -42 -16.5 -79.5t-44.5 -65.5t-66 -44.5t-81 -16.5q-45 0 -82.5 16.5t-64.5 44t-42 65t-15 79.5
q0 26 18 43.5t44 17.5q25 0 43 -17.5t18 -43.5q0 -35 24 -58.5t59 -23.5t59 24t24 59q0 16 -6.5 34t-18 33t-27 25.5t-32.5 11.5q-25 0 -42.5 18t-17.5 43t18 43.5t45 18.5q18 0 29.5 8t17.5 20t8.5 25.5t2.5 25.5q0 25 -18 42t-42 17q-21 0 -32.5 -9t-17.5 -22t-9.5 -28.5
t-10 -28.5t-18 -22t-33.5 -9q-26 0 -43.5 17.5t-17.5 43.5z" />
    <glyph glyph-name="five" unicode="5" horiz-adv-x="461" 
d="M51 598q0 26 17.5 44t43.5 18h241q26 0 43.5 -18t17.5 -44q0 -24 -17.5 -42.5t-43.5 -18.5h-180v-90q14 5 29.5 7.5t29.5 2.5q42 0 79.5 -16.5t65.5 -44t44.5 -65t16.5 -79.5v-65q0 -42 -16.5 -80t-44.5 -66.5t-65.5 -45t-79.5 -16.5t-79 16.5t-65 45t-44.5 66.5
t-16.5 80q0 26 17.5 43.5t43.5 17.5q25 0 43 -17.5t18 -46.5q0 -17 7 -31.5t18 -26t26 -18t32 -6.5q18 0 33 7t26.5 18.5t18 27t6.5 32.5v65q0 17 -6.5 32t-18 26t-26.5 17.5t-33 6.5q-22 0 -39 -9.5t-31 -26.5q-8 -9 -19.5 -17t-32.5 -8q-26 0 -42.5 17.5t-16.5 43.5v264z
" />
    <glyph glyph-name="backslash" unicode="\" horiz-adv-x="529" 
d="M18 534q-6 8 -10 18.5t-4 19.5q0 24 17.5 42.5t46.5 18.5q12 0 24.5 -5.5t21.5 -17.5q98 -128 199 -260.5t199 -259.5q7 -9 9 -19.5t3 -18.5q0 -23 -17 -42.5t-44 -19.5q-13 0 -26 6t-21 17z" />
    <glyph glyph-name="underscore" unicode="_" horiz-adv-x="546" 
d="M96 -71q-26 0 -44 18.5t-18 42.5q0 25 18 43t44 18h357q26 0 43.5 -18.5t17.5 -42.5q0 -26 -17.5 -43.5t-43.5 -17.5h-357z" />
    <glyph glyph-name="S" unicode="S" horiz-adv-x="563" 
d="M85 240q22 0 38.5 -15t26.5 -37q14 -29 45 -49.5t75 -20.5q23 0 45 5.5t39 16t27.5 27t10.5 38.5t-10 38t-27 26.5t-39 15.5t-46 5q-48 0 -89.5 11.5t-71.5 34.5t-47 58.5t-17 83.5q0 44 16 79.5t45.5 60t71 37.5t92.5 13q1 0 23.5 -2t53.5 -12t64.5 -31.5t56.5 -61.5
q10 -15 10 -36q0 -10 -4.5 -21t-12.5 -20t-19.5 -15t-25.5 -6q-22 0 -37 12.5t-29.5 27t-33 27t-47.5 12.5q-55 0 -77 -19.5t-22 -44.5q0 -34 29 -48.5t71 -14.5q51 0 96 -13.5t79 -40t54 -65.5t20 -91q0 -53 -20 -93t-54.5 -66.5t-80.5 -40t-98 -13.5q-10 0 -39 4.5
t-64.5 20t-71.5 46.5t-60 84q-7 16 -7 30q0 27 17.5 45t43.5 18z" />
    <glyph glyph-name="space" unicode=" " horiz-adv-x="265" 
 />
    <glyph glyph-name="numbersign" unicode="#" horiz-adv-x="455" 
d="M78 592q0 26 18 43.5t43 17.5t43.5 -17.5t18.5 -43.5v-117h55v117q0 26 18 43.5t43 17.5t43.5 -17.5t18.5 -43.5v-117q23 -2 39.5 -19.5t16.5 -42.5q0 -23 -16.5 -40.5t-39.5 -19.5v-56q23 -2 39.5 -19.5t16.5 -41.5t-16.5 -42t-39.5 -20v-116q0 -26 -18 -44t-44 -18
q-24 0 -42.5 18t-18.5 44v116h-55v-116q0 -26 -18 -44t-44 -18q-24 0 -42.5 18t-18.5 44v116q-23 4 -38.5 21.5t-15.5 40.5q0 22 15 39.5t39 21.5v56q-23 3 -38.5 20.5t-15.5 39.5q0 23 15 40.5t39 21.5v117zM201 353v-56h55v56h-55z" />
    <glyph glyph-name="quotesingle" unicode="'" horiz-adv-x="194" 
d="M32 598q0 12 5 23t13.5 19.5t19.5 14t23 5.5h35q26 0 44 -18.5t18 -43.5q0 -39 -35 -54v-16q0 -25 -18.5 -43t-42.5 -18q-26 0 -44 18t-18 43v70z" />
    <glyph glyph-name="quotedbl" unicode="&#x22;" horiz-adv-x="294" 
d="M33 591q0 26 18 44t42 18q25 0 43.5 -18t18.5 -44v-70q0 -25 -18 -43t-44 -18q-23 0 -41.5 18t-18.5 43v70zM167 591q0 26 18.5 44t43.5 18q24 0 42.5 -18t18.5 -44v-70q0 -25 -17.5 -43t-43.5 -18q-25 0 -43.5 18t-18.5 43v70z" />
    <glyph glyph-name="hyphen" unicode="-" horiz-adv-x="427" 
d="M94 217q-25 0 -43 18t-18 44q0 24 18 42t43 18h245q26 0 43.5 -17.5t17.5 -42.5t-17.5 -43.5t-43.5 -18.5h-245z" />
    <glyph glyph-name="plus" unicode="+" horiz-adv-x="382" 
d="M132 400q0 26 18 44t42 18q25 0 43.5 -18t18.5 -44v-61h61q26 0 44 -17.5t18 -42.5t-18 -43.5t-44 -18.5h-61v-61q0 -26 -18 -44t-44 -18q-23 0 -41.5 18t-18.5 44v61h-62q-24 0 -42 18t-18 44q0 24 18 42t42 18h62v61z" />
    <glyph glyph-name="asterisk" unicode="*" horiz-adv-x="402" 
d="M98 339q-12 17 -14 26.5t-2 18.5q0 23 16.5 42t45.5 19q16 0 29.5 -8.5t22.5 -22.5l8 -13l8 12q10 14 24 23t31 9q26 0 42.5 -18.5t16.5 -42.5q0 -8 -1 -16t-6 -16l-7 -13h15q25 0 43 -17.5t18 -42.5t-18 -43.5t-43 -18.5h-18l10 -18q7 -13 7 -28q0 -22 -15 -41t-44 -19
q-17 0 -30.5 8.5t-23.5 22.5l-9 13l-9 -13q-9 -14 -21.5 -22.5t-29.5 -8.5q-28 0 -45.5 18t-17.5 43q0 8 2.5 15.5t5.5 13.5l9 16h-16q-26 0 -44 18t-18 44q0 24 18 42t44 18h16z" />
    <glyph glyph-name="comma" unicode="," horiz-adv-x="167" 
d="M31 59q0 24 18 42t42 18q25 0 43.5 -18t18.5 -42v-74q0 -26 -18 -43.5t-44 -17.5q-23 0 -41.5 17.5t-18.5 43.5v74z" />
    <glyph glyph-name="period" unicode="." horiz-adv-x="158" 
d="M26 58q0 24 17.5 42t43.5 18q24 0 42.5 -18t18.5 -42q0 -26 -18 -44t-43 -18q-24 0 -42.5 18t-18.5 44z" />
    <glyph glyph-name="exclam" unicode="!" horiz-adv-x="174" 
d="M35 603q0 24 18.5 42.5t41.5 18.5q26 0 44 -18.5t18 -42.5v-385q0 -26 -18.5 -46t-43.5 -20q-24 0 -42 20t-18 46v385zM35 80q0 25 18.5 43t41.5 18q26 0 44 -18t18 -43v-22q0 -26 -18.5 -44t-43.5 -18q-24 0 -42 18t-18 44v22z" />
    <glyph glyph-name="semicolon" unicode=";" horiz-adv-x="167" 
d="M31 58q0 24 17.5 42t43.5 18q24 0 42.5 -18t18.5 -42v-74q0 -26 -18 -43.5t-43 -17.5q-24 0 -42.5 17.5t-18.5 43.5v74zM31 439q0 26 17.5 43.5t43.5 17.5q24 0 42.5 -17.5t18.5 -43.5q0 -25 -18 -43t-43 -18q-24 0 -42.5 18t-18.5 43z" />
    <glyph glyph-name="colon" unicode=":" horiz-adv-x="165" 
d="M30 439q0 26 17.5 43.5t43.5 17.5q24 0 42.5 -17.5t18.5 -43.5q0 -25 -18 -43t-43 -18q-24 0 -42.5 18t-18.5 43zM30 58q0 24 17.5 42t43.5 18q24 0 42.5 -18t18.5 -42q0 -26 -18 -44t-43 -18q-24 0 -42.5 18t-18.5 44z" />
    <glyph glyph-name="parenright" unicode=")" horiz-adv-x="292" 
d="M272 -3q0 -40 -15 -74.5t-41 -59.5t-60 -39.5t-72 -14.5q-26 0 -44 18t-18 44q0 21 9.5 32.5t23.5 17.5t30.5 10t30.5 10.5t23.5 18.5t9.5 34v500q0 21 -9.5 32.5t-23.5 17.5t-30.5 10t-30.5 10.5t-23.5 18t-9.5 33.5q0 26 18 43t44 17q39 0 73 -14t59.5 -39t40.5 -59
t15 -74v-493z" />
    <glyph glyph-name="parenleft" unicode="(" horiz-adv-x="292" 
d="M30 488q0 40 15 74.5t41 59.5t60 39.5t72 14.5q26 0 44 -18t18 -44q0 -22 -9.5 -33t-23.5 -17.5t-30.5 -10t-30.5 -10t-23.5 -18.5t-9.5 -34v-500q0 -22 9.5 -33t23.5 -17.5t30.5 -10t30.5 -10t23.5 -18t9.5 -33.5q0 -26 -18 -43t-44 -17q-39 0 -73.5 14t-60 39t-40 59
t-14.5 74v493z" />
    <glyph glyph-name="equal" unicode="=" horiz-adv-x="428" 
d="M94 144q-25 0 -43 18.5t-18 43.5q0 24 18 42.5t43 18.5h245q26 0 43.5 -17.5t17.5 -43.5q0 -25 -17.5 -43.5t-43.5 -18.5h-245zM94 290q-25 0 -43 17.5t-18 43.5q0 24 18 42.5t43 18.5h245q26 0 43.5 -18t17.5 -43t-17.5 -43t-43.5 -18h-245z" />
    <glyph glyph-name="bar" unicode="|" horiz-adv-x="176" 
d="M36 593q0 26 18 43.5t42 17.5q25 0 43.5 -17.5t18.5 -43.5v-688q0 -26 -18 -44t-44 -18q-24 0 -42 18t-18 44v688z" />
    <glyph glyph-name="six" unicode="6" horiz-adv-x="463" 
d="M30 469q0 42 16 80.5t43.5 68t65 47t80.5 17.5q25 0 54.5 -8t54 -22t41 -33.5t16.5 -42.5q0 -26 -18 -43.5t-43 -17.5q-18 0 -28.5 7t-20.5 15t-22.5 15t-33.5 7q-32 0 -55 -24.5t-28 -54.5q19 8 39 12t43 4q43 0 81 -16t66 -43.5t44 -64.5t16 -79v-109q0 -42 -16 -79.5
t-44 -65t-66 -44t-81 -16.5q-42 0 -79 15t-64.5 42.5t-44 65t-16.5 82.5v285zM152 184q0 -35 24 -58.5t58 -23.5q36 0 60.5 23.5t24.5 58.5v109q0 17 -6.5 32t-18 26.5t-27 18t-33.5 6.5q-17 0 -32 -6.5t-26 -18t-17.5 -25.5t-6.5 -29v-113z" />
    <glyph glyph-name="nine" unicode="9" horiz-adv-x="463" 
d="M25 477q0 42 16 79.5t44 65t65.5 44t80.5 16.5q42 0 79.5 -16.5t65 -44t44 -65t16.5 -79.5v-292q0 -42 -16 -79.5t-44 -65.5t-65 -44.5t-80 -16.5q-24 0 -53 8t-54 22t-42 34t-17 43q0 26 18 43.5t43 17.5q16 0 28 -7t23.5 -15t24 -15t29.5 -7q32 0 55 20.5t27 50.5
q-18 -9 -38.5 -13t-43.5 -4q-43 0 -80.5 16t-65.5 44t-44 65t-16 79v116zM147 361q0 -35 24.5 -59t59.5 -24t59 23.5t24 56.5v119q0 34 -24 58t-59 24q-18 0 -33 -6.5t-26.5 -17.5t-18 -26t-6.5 -32v-116z" />
    <glyph glyph-name="two" unicode="2" horiz-adv-x="472" 
d="M317 477q0 34 -24 58t-59 24q-17 0 -32 -6.5t-26.5 -17t-18.5 -25t-7 -30.5q0 -26 -18 -43.5t-43 -17.5q-26 0 -43.5 17.5t-17.5 43.5q0 41 16.5 78t45 64.5t66 43.5t78.5 16q43 0 80 -16.5t65 -44.5t44 -65.5t16 -79.5q0 -70 -46 -130l-169 -224h163q25 0 43.5 -18
t18.5 -42q0 -26 -18.5 -44t-43.5 -18h-298q-26 0 -43.5 18t-17.5 44q0 22 14 39l257 324q18 23 18 52z" />
    <glyph glyph-name="one" unicode="1" horiz-adv-x="240" 
d="M37 603q36 21 56 33.5t32 18.5t18 7.5t14 1.5q25 0 42.5 -18t17.5 -44v-544q0 -26 -17.5 -44t-42.5 -18t-43.5 18t-18.5 44v444q-5 -7 -13.5 -10.5t-16.5 -3.5q-22 0 -40.5 16.5t-18.5 44.5q0 14 8 30t23 24z" />
    <glyph glyph-name="less" unicode="&#x3c;" horiz-adv-x="277" 
d="M147 446q18 22 47 22q28 0 45 -18.5t17 -41.5q0 -10 -2.5 -19.5t-10.5 -19.5l-95 -125l95 -124q13 -18 13 -38q0 -23 -17 -42.5t-45 -19.5q-13 0 -26 6.5t-21 17.5l-126 164q-13 18 -13 35q0 22 14 41z" />
    <glyph glyph-name="greater" unicode="&#x3e;" horiz-adv-x="279" 
d="M46 369q-8 9 -10.5 19.5t-2.5 19.5q0 23 17.5 41.5t45.5 18.5q13 0 25.5 -5t22.5 -17l121 -159q16 -26 16 -42q0 -8 -4 -19t-9 -19l-124 -163q-10 -11 -22 -17.5t-26 -6.5q-28 0 -45.5 19.5t-17.5 42.5q0 9 4 19.5t9 18.5l97 125z" />
    <glyph glyph-name="question" unicode="?" horiz-adv-x="493" 
d="M156 266q0 24 18.5 42t41.5 18h12q28 0 51.5 10t41 26.5t27 38t9.5 43.5q0 24 -9 44.5t-25 36.5t-37.5 25t-45.5 9q-38 0 -67 -21.5t-44 -54.5q-8 -17 -24.5 -26t-31.5 -9q-27 0 -43 18.5t-16 41.5q0 12 3 24q14 33 36.5 60.5t51.5 47.5t63 31t72 11q49 0 93 -19t76 -51
t51 -76t19 -93q0 -40 -15 -80t-42.5 -72.5t-66 -55t-85.5 -26.5q-7 -15 -19 -31.5t-35 -16.5q-24 0 -42 18.5t-18 43.5v43zM156 83q0 25 18.5 43t41.5 18q26 0 44 -18t18 -43v-25q0 -26 -18.5 -44t-43.5 -18q-24 0 -42 18t-18 44v25z" />
    <glyph glyph-name="seven" unicode="7" horiz-adv-x="455" 
d="M391 660q24 0 43 -16.5t19 -45.5q0 -8 -3 -17.5t-8 -17.5l-296 -537q-8 -14 -22 -21t-27 -9q-26 0 -45.5 18.5t-19.5 43.5q0 6 3 15t7 16q33 59 63 115t59.5 111.5t59 110.5t61.5 111h-192q-26 0 -43.5 18.5t-17.5 42.5q0 26 17.5 44t43.5 18h298z" />
    <glyph glyph-name="four" unicode="4" horiz-adv-x="436" 
d="M260 635q8 14 23.5 21.5t29.5 7.5q25 0 42.5 -19t17.5 -42v-380q20 -6 31.5 -22t11.5 -37q0 -22 -11.5 -37.5t-31.5 -20.5v-48q0 -26 -18.5 -44t-42.5 -18q-26 0 -44 18t-18 44v46h-185q-24 0 -42.5 18.5t-18.5 41.5q0 18 9 33zM250 364l-80 -138h80v138z" />
    <glyph glyph-name="bracketleft" unicode="[" horiz-adv-x="295" 
d="M36 614q0 26 18.5 44t42.5 18h127q26 0 44 -18.5t18 -43.5q0 -24 -18 -42t-44 -18h-65v-624h65q26 0 44 -18t18 -43q0 -24 -18 -42.5t-44 -18.5h-127q-24 0 -42.5 17.5t-18.5 43.5v745z" />
    <glyph glyph-name="bracketright" unicode="]" horiz-adv-x="295" 
d="M82 554q-26 0 -44 18t-18 42q0 25 18 43.5t44 18.5h127q24 0 42.5 -18t18.5 -44v-745q0 -26 -18.5 -43.5t-42.5 -17.5h-127q-26 0 -44 18.5t-18 42.5q0 25 18 43t44 18h66v624h-66z" />
    <glyph glyph-name="asciicircum" unicode="^" horiz-adv-x="484" 
d="M205 629q8 5 18 9t19 4q10 -1 20.5 -3.5t19.5 -9.5l163 -125q12 -9 17 -21.5t5 -24.5q0 -29 -18.5 -46.5t-42.5 -17.5q-9 0 -19.5 4t-18.5 10l-125 97l-124 -97q-8 -5 -18.5 -9.5t-19.5 -4.5q-23 0 -42.5 17.5t-19.5 46.5q0 12 6 24.5t17 21.5z" />
    <glyph glyph-name="grave" unicode="`" horiz-adv-x="184" 
d="M27 553q-8 12 -8 31q0 23 17 42.5t44 19.5q15 0 30 -8.5t24 -22.5l34 -62q4 -8 6.5 -15.5t2.5 -15.5q0 -25 -17.5 -43t-44.5 -18q-16 0 -30 7t-22 22z" />
    <glyph glyph-name="acute" unicode="&#xb4;" horiz-adv-x="183" 
d="M65 616q17 30 52 30q27 0 44 -18.5t17 -41.5q0 -8 -1.5 -16.5t-7.5 -16.5l-36 -63q-19 -29 -51 -29q-27 0 -45 17.5t-18 42.5q0 17 9 32z" />
    <glyph glyph-name="bullet" unicode="&#x2022;" horiz-adv-x="225" 
d="M26 312q0 39 27 66.5t66 27.5t66 -27.5t27 -66.5q0 -19 -7 -36t-20 -29.5t-30 -20t-36 -7.5q-20 0 -36.5 7.5t-29.5 20t-20 29.5t-7 36z" />
    <glyph glyph-name="braceleft" unicode="{" horiz-adv-x="360" 
d="M92 488q0 39 15 73t40.5 59.5t60 40.5t72.5 15q26 0 44 -18t18 -44q0 -21 -9.5 -32.5t-23.5 -17.5t-30.5 -10t-30.5 -10.5t-23.5 -18.5t-9.5 -34v-213q0 -15 -11.5 -25t-22.5 -11q11 -1 22.5 -10.5t11.5 -24.5v-216q0 -22 9.5 -33t23.5 -17.5t30.5 -10.5t30.5 -10.5
t23.5 -18t9.5 -32.5q0 -26 -18 -43.5t-44 -17.5q-38 0 -72.5 14.5t-60 40t-40.5 59.5t-15 73v183q0 3 -3 3h-17q-26 0 -44 17.5t-18 43.5q0 24 18 42.5t44 18.5h17q3 0 3 2v183z" />
    <glyph glyph-name="braceright" unicode="}" horiz-adv-x="358" 
d="M275 -4q0 -39 -15 -73.5t-40.5 -60t-60 -40t-72.5 -14.5q-26 0 -44 18t-18 44q0 21 9.5 32.5t23.5 18t30.5 11t30.5 11t23.5 18t9.5 32.5v213q0 15 11.5 25t22.5 11q-11 1 -22.5 10.5t-11.5 24.5v216q0 21 -9.5 32.5t-23.5 18t-30.5 10.5t-30.5 10.5t-23.5 17.5t-9.5 33
q0 26 18 43.5t44 17.5q38 0 72.5 -14.5t60 -40t40.5 -59.5t15 -73v-183q0 -3 3 -3h17q26 0 44 -17.5t18 -43.5q0 -24 -18 -42.5t-44 -18.5h-17q-3 0 -3 -2v-183z" />
    <glyph glyph-name="sterling" unicode="&#xa3;" horiz-adv-x="536" 
d="M107 449q0 42 16 79t44 65t65.5 44t79.5 16q23 0 51 -8t53 -21.5t41.5 -32.5t16.5 -40q0 -24 -17.5 -42t-42.5 -18q-15 0 -27 6.5t-23 14t-23.5 14t-28.5 6.5q-34 0 -58.5 -24.5t-24.5 -58.5v-105h109q26 0 43.5 -17.5t17.5 -43.5q0 -25 -17.5 -43.5t-43.5 -18.5h-109
v-57q12 -2 28.5 -11.5t33.5 -21t32.5 -20.5t26.5 -9q16 0 28 7.5t23 16t22.5 16t26.5 7.5q27 0 44 -19.5t17 -42.5q0 -26 -17.5 -46t-43 -33.5t-53 -20.5t-48.5 -7q-28 0 -60 9.5t-57 32.5q-8 8 -23 17t-30 9t-26.5 -7.5t-23 -16.5t-23 -16.5t-26.5 -7.5q-27 0 -44 20
t-17 43q0 14 8.5 27.5t21.5 26t28.5 22.5t29.5 16v66h-13q-26 0 -44 18.5t-18 43.5q0 24 18 42.5t44 18.5h13v105z" />
    <glyph glyph-name="asciitilde" unicode="~" horiz-adv-x="542" 
d="M237 204q-17 15 -29.5 19.5t-22.5 4.5q-16 0 -27.5 -7.5t-22.5 -16t-22.5 -16t-26.5 -7.5q-27 0 -44 19.5t-17 42.5q0 25 17 45.5t42 34t52.5 21t47.5 7.5q31 0 61 -10t57 -32q20 -16 32.5 -21t21.5 -5q16 0 28 7.5t22.5 16t22 16t27.5 7.5q27 0 44 -19.5t17 -42.5
q0 -25 -17.5 -44.5t-42.5 -33.5t-53 -21.5t-49 -7.5q-29 0 -60.5 10.5t-57.5 32.5z" />
    <glyph glyph-name="quotesinglbase" unicode="&#x201a;" horiz-adv-x="192" 
d="M53 58q0 26 18.5 43.5t43.5 17.5q24 0 42.5 -17.5t18.5 -43.5v-71q0 -11 -5 -22t-13.5 -19.5t-19.5 -14t-23 -5.5h-35q-26 0 -44 18.5t-18 42.5q0 39 35 54v17z" />
    <glyph glyph-name="quoteleft" unicode="&#x2018;" horiz-adv-x="194" 
d="M32 591q0 12 5 23t13.5 19.5t19.5 14t23 5.5h35q26 0 44 -18.5t18 -43.5q0 -39 -35 -54v-16q0 -25 -18.5 -43t-42.5 -18q-26 0 -44 18t-18 43v70z" />
    <glyph glyph-name="quotedblleft" unicode="&#x201c;" horiz-adv-x="365" 
d="M34 591q0 23 18 42.5t41 19.5h36q26 0 43.5 -18.5t17.5 -43.5q0 -39 -34 -54v-16q0 -25 -18.5 -43t-43.5 -18t-42.5 18t-17.5 43v70zM201 591q0 12 5 23t13.5 19.5t19.5 14t22 5.5h36q26 0 43.5 -18.5t17.5 -43.5q0 -39 -35 -54v-16q0 -25 -18 -43t-43 -18t-43 18t-18 43
v70z" />
    <glyph glyph-name="quoteright" unicode="&#x2019;" horiz-adv-x="193" 
d="M54 591q0 26 18.5 44t43.5 18q24 0 42.5 -18t18.5 -44v-70q0 -23 -19 -42t-42 -19h-35q-26 0 -44 18t-18 43q0 18 10 33t25 23v14z" />
    <glyph glyph-name="quotedblright" unicode="&#x201d;" horiz-adv-x="375" 
d="M230 591q0 26 18.5 44t42.5 18q25 0 43 -18t18 -44v-70q0 -23 -18.5 -42t-41.5 -19h-35q-26 0 -44 18t-18 43q0 18 10 33t25 23v14zM62 591q0 26 18.5 44t43.5 18t43 -18t18 -44v-70q0 -12 -5 -23t-13.5 -19.5t-19.5 -13.5t-22 -5h-36q-26 0 -43.5 18t-17.5 43
q0 18 9.5 33t24.5 23v14z" />
    <glyph glyph-name="endash" unicode="&#x2013;" horiz-adv-x="465" 
d="M95 217q-25 0 -43.5 18t-18.5 44q0 24 18.5 42t43.5 18h281q24 0 42 -17.5t18 -42.5t-18 -43.5t-42 -18.5h-281z" />
    <glyph glyph-name="emdash" unicode="&#x2014;" horiz-adv-x="577" 
d="M94 217q-25 0 -42.5 18t-17.5 44q0 24 17.5 42t42.5 18h388q26 0 43.5 -17.5t17.5 -42.5t-17.5 -43.5t-43.5 -18.5h-388z" />
    <glyph glyph-name="circumflex" unicode="&#x2c6;" horiz-adv-x="277" 
d="M118 489q-17 -11 -34 -11q-23 0 -41.5 17.5t-18.5 43.5q0 15 6.5 28.5t20.5 22.5l74 49q3 1 7 3q8 4 13 4t13 -4q4 -2 7 -3l74 -49q14 -9 20.5 -22.5t6.5 -28.5q0 -26 -18.5 -43.5t-41.5 -17.5q-17 0 -34 11l-27 18z" />
    <glyph glyph-name="ellipsis" unicode="&#x2026;" horiz-adv-x="410" 
d="M33 62q0 24 18.5 42t43.5 18q24 0 42.5 -18t18.5 -42q0 -26 -17.5 -44t-43.5 -18q-25 0 -43.5 18t-18.5 44zM167 62q0 24 18 42t44 18q24 0 42.5 -18t18.5 -42q0 -26 -18 -44t-43 -18t-43.5 18t-18.5 44zM301 62q0 24 17.5 42t43.5 18q25 0 43.5 -18t18.5 -42
q0 -26 -18 -44t-44 -18q-24 0 -42.5 18t-18.5 44z" />
    <glyph glyph-name="quotedblbase" unicode="&#x201e;" horiz-adv-x="294" 
d="M33 58q0 26 18 43.5t42 17.5q25 0 43.5 -17.5t18.5 -43.5v-71q0 -26 -18 -43.5t-44 -17.5q-23 0 -41.5 17.5t-18.5 43.5v71zM169 58q0 26 18.5 43.5t43.5 17.5q24 0 42.5 -17.5t18.5 -43.5v-71q0 -26 -17.5 -43.5t-43.5 -17.5q-25 0 -43.5 17.5t-18.5 43.5v71z" />
    <glyph glyph-name="cent" unicode="&#xa2;" horiz-adv-x="398" 
d="M20 312q0 33 10.5 62t29 52t43.5 40t55 26v22q0 20 15.5 35t35.5 15q21 0 36 -15.5t15 -34.5v-21q15 -4 32 -12t33.5 -20.5t31.5 -31.5t26 -46q3 -5 4 -11t1 -11q0 -26 -18 -44t-44 -18q-14 0 -22.5 4t-15 11.5t-13 17t-15.5 21.5v-210q8 10 13.5 19.5t12.5 17t16 12.5
t24 5q26 0 44 -18.5t18 -42.5q0 -12 -6 -24q-12 -26 -27 -45t-31.5 -31.5t-32.5 -20.5t-31 -12v-28q0 -17 -12.5 -34.5t-38.5 -17.5q-24 0 -37.5 17.5t-13.5 34.5v28q-30 9 -55.5 26.5t-43.5 41.5t-28.5 52.5t-10.5 60.5v128zM142 312v-128q0 -24 16 -43v213
q-16 -18 -16 -42z" />
    <glyph glyph-name="brokenbar" unicode="&#xa6;" horiz-adv-x="175" 
d="M35 176q0 25 18 43t42 18q25 0 43.5 -18t18.5 -43v-271q0 -26 -18 -44t-44 -18q-24 0 -42 18t-18 44v271zM35 584q0 26 18 43.5t42 17.5q25 0 43.5 -17.5t18.5 -43.5v-272q0 -26 -18 -43.5t-44 -17.5q-24 0 -42 17.5t-18 43.5v272z" />
    <glyph glyph-name="tilde" unicode="&#x2dc;" horiz-adv-x="340" 
d="M30 570q0 22 11.5 36t28 22.5t33.5 12t29 3.5q18 0 34.5 -8t33.5 -8t29.5 7.5t28.5 7.5q25 0 43.5 -17.5t18.5 -43.5q0 -21 -12.5 -35.5t-30 -22.5t-36.5 -11.5t-32 -3.5q-18 0 -33 5.5t-30 5.5t-27 -5t-26 -5q-24 0 -43.5 17.5t-19.5 42.5z" />
    <glyph glyph-name="dieresis" unicode="&#xa8;" horiz-adv-x="292" 
d="M32 591q0 26 18 44t42 18q25 0 43.5 -18t18.5 -44v-26q0 -24 -18 -42t-44 -18q-23 0 -41.5 18t-18.5 42v26zM165 591q0 26 18 44t43 18q24 0 42.5 -18t18.5 -44v-26q0 -24 -17.5 -42t-43.5 -18q-24 0 -42.5 18t-18.5 42v26z" />
    <glyph glyph-name="guillemotleft" unicode="&#xab;" horiz-adv-x="457" 
d="M154 446q9 12 21.5 17t26.5 5q28 0 45 -18.5t17 -41.5q0 -16 -12 -36.5t-29.5 -42.5t-36.5 -44t-32 -40l98 -125q5 -8 8.5 -18.5t3.5 -19.5q0 -23 -17 -42.5t-45 -19.5q-14 0 -26 6.5t-22 17.5l-125 164q-12 17 -12 35q0 21 13 41zM337 446q9 12 21 17t26 5
q28 0 45.5 -18.5t17.5 -41.5q-1 -10 -4 -20t-10 -19l-95 -125l95 -124q14 -18 14 -38q0 -23 -17.5 -42.5t-45.5 -19.5q-13 0 -26 6.5t-21 17.5l-125 164q-13 16 -13 35q0 22 14 41z" />
    <glyph glyph-name="guillemotright" unicode="&#xbb;" horiz-adv-x="458" 
d="M327 42q-9 -12 -22 -17t-26 -5q-28 0 -45 18.5t-17 41.5q0 16 12 36.5t29.5 42.5t36 44t32.5 40l-98 125q-5 8 -8.5 18.5t-3.5 19.5q0 23 17 42.5t45 19.5q14 0 26 -6.5t22 -17.5l125 -164q12 -17 12 -35q0 -22 -13 -41zM144 42q-9 -12 -21 -17t-26 -5q-28 0 -45.5 18.5
t-17.5 41.5q0 21 14 39l95 125l-95 124q-14 18 -14 38q0 23 17.5 42.5t45.5 19.5q13 0 26 -6.5t21 -17.5l125 -164q13 -16 13 -35q0 -22 -14 -41z" />
    <glyph glyph-name="oe" unicode="&#x153;" horiz-adv-x="712" 
d="M43 312q0 38 15 72.5t40.5 60t60 40.5t73.5 15t73 -15t59.5 -40.5t40.5 -60t15 -72.5v-128q0 -38 -14.5 -72.5t-40 -60t-60 -40.5t-73.5 -15t-73 15t-60 40.5t-41 60t-15 72.5v128zM166 184q0 -27 19.5 -46t46.5 -19q28 0 47 19t19 46v128q0 27 -19.5 46t-46.5 19
q-28 0 -47 -19t-19 -46v-128zM298 312q0 38 15 72.5t40.5 60t60 40.5t73.5 15t73 -15t59.5 -40.5t40.5 -60t15 -72.5v-64q0 -26 -18 -43.5t-42 -17.5h-194q0 -29 19.5 -48.5t46.5 -19.5q10 0 23 2.5t24 16.5q9 11 24.5 21.5t34.5 10.5q20 0 38.5 -17.5t18.5 -41.5
q0 -18 -12.5 -38t-34 -37t-51.5 -28.5t-65 -11.5q-39 0 -73 15t-60 40.5t-41 60t-15 72.5v128zM421 310h132q0 29 -19.5 48t-46.5 19q-28 0 -47 -19t-19 -48z" />
    <glyph glyph-name="OE" unicode="&#x152;" horiz-adv-x="909" 
d="M21 436q0 51 19.5 96t53.5 78t78.5 52.5t95.5 19.5q50 0 95 -19.5t78.5 -52.5t53.5 -78t20 -96v-212q0 -50 -19.5 -94.5t-53.5 -78t-78.5 -53t-95.5 -19.5t-95.5 19.5t-78.5 53t-53.5 78t-19.5 94.5v212zM148 224q0 -25 9.5 -46.5t26 -37.5t38 -25.5t46.5 -9.5t47 9.5
t38 25.5t25.5 37.5t9.5 46.5v212q0 25 -9.5 46.5t-26 37.5t-38 25.5t-46.5 9.5t-47 -9.5t-38 -25.5t-25.5 -37.5t-9.5 -46.5v-212zM388 597q0 26 18 44.5t45 18.5h367q26 0 44 -18.5t18 -44.5q0 -25 -18 -43.5t-44 -18.5h-305v-152h198q26 0 44 -18t18 -44t-18 -44.5
t-44 -18.5h-198v-133h305q26 0 44 -18t18 -44t-18 -44.5t-44 -18.5h-367q-26 0 -44.5 18.5t-18.5 44.5v534z" />
    <glyph glyph-name="dollar" unicode="$" horiz-adv-x="513" 
d="M193 658q0 24 17.5 42t43.5 18q24 0 42.5 -18t18.5 -42v-21q14 -3 38 -13.5t47.5 -27t40.5 -38.5t17 -49q0 -10 -4.5 -20.5t-12.5 -19.5t-19.5 -15t-24.5 -6q-15 0 -27.5 7t-22.5 17t-18 19.5t-14 14.5v-106q39 -7 72 -23.5t57.5 -41.5t38 -58.5t13.5 -75.5
q0 -89 -49 -139t-132 -61v-22q0 -26 -18 -44t-43 -18t-43 18t-18 44v25q-15 2 -44.5 14t-58.5 33.5t-51 52.5t-22 70q0 26 16.5 44t41.5 18q23 0 35.5 -12.5t23 -29.5t23.5 -34.5t36 -27.5v155q-33 7 -62 21t-50 36t-33 51.5t-12 66.5q0 73 41.5 119t115.5 60v17zM315 128
q25 9 42 27t17 46q0 29 -16.5 46.5t-42.5 25.5v-145zM193 512q-20 -8 -27 -21t-7 -29q0 -18 9 -29.5t25 -18.5v98z" />
    <glyph glyph-name="guilsinglleft" unicode="&#x2039;" horiz-adv-x="277" 
d="M147 429q8 11 21 16.5t26 5.5q28 0 45 -18.5t17 -43.5q0 -9 -3 -19.5t-11 -19.5l-94 -107l93 -104q8 -9 11.5 -19t3.5 -21q0 -23 -17 -42t-45 -19q-14 0 -26.5 7t-20.5 17l-127 146q-12 15 -12 35q0 25 18 46z" />
    <glyph glyph-name="guilsinglright" unicode="&#x203a;" horiz-adv-x="279" 
d="M48 350q-8 9 -11.5 19.5t-3.5 19.5q0 25 17.5 43.5t45.5 18.5t47 -22l124 -145q14 -20 14 -41q0 -19 -12 -34l-126 -148q-9 -11 -21.5 -17t-25.5 -6q-28 0 -45.5 19t-17.5 42q0 10 3 21t11 19l95 104z" />
    <glyph glyph-name="dagger" unicode="&#x2020;" horiz-adv-x="376" 
d="M129 603q0 26 18 43.5t42 17.5q25 0 43.5 -17.5t18.5 -43.5v-264h61q26 0 44 -17.5t18 -42.5t-18 -43.5t-44 -18.5h-61v-312q0 -26 -18 -44t-44 -18q-23 0 -41.5 18t-18.5 44v312h-61q-26 0 -43.5 18t-17.5 44q0 24 17.5 42t43.5 18h61v264z" />
    <glyph glyph-name="daggerdbl" unicode="&#x2021;" horiz-adv-x="381" 
d="M132 603q0 26 18 43.5t42 17.5q25 0 43.5 -17.5t18.5 -43.5v-195h61q26 0 44 -18t18 -43t-18 -43t-44 -18h-61v-14h61q26 0 44 -17.5t18 -43.5q0 -25 -18 -43.5t-44 -18.5h-61v-244q0 -26 -18 -44t-44 -18q-23 0 -41.5 18t-18.5 44v244h-62q-24 0 -42 18.5t-18 43.5
q0 24 18 42.5t42 18.5h62v14h-62q-24 0 -42 17.5t-18 43.5q0 24 18 42.5t42 18.5h62v195z" />
    <glyph glyph-name="mu" unicode="&#xb5;" horiz-adv-x="425" 
d="M36 435q0 26 18 43.5t44 17.5q23 0 41.5 -17.5t18.5 -43.5v-251q0 -27 19 -46t48 -19q26 0 46 19t20 46v251q0 26 18 43.5t43 17.5q24 0 42.5 -17.5t18.5 -43.5v-251q0 -38 -15 -72.5t-40.5 -60t-59.5 -40.5t-73 -15q-17 0 -34.5 3t-32.5 8v-74q0 -25 -18.5 -43
t-41.5 -18q-26 0 -44 18t-18 43v502z" />
    <glyph glyph-name="periodcentered" unicode="&#xb7;" horiz-adv-x="156" 
d="M25 266q0 25 17.5 43t43.5 18q24 0 42.5 -18t18.5 -43q0 -26 -18 -43.5t-43 -17.5q-24 0 -42.5 17.5t-18.5 43.5z" />
    <glyph glyph-name="questiondown" unicode="&#xbf;" horiz-adv-x="492" 
d="M336.01 395.017q0 -23.999 -18.499 -41.998t-41.4971 -17.999h-12q-27.998 0 -51.4971 -9.99902q-23.498 -9.99902 -40.9971 -26.498t-26.998 -37.998q-9.5 -21.499 -9.5 -43.4971q0 -23.999 9 -44.4971q8.99902 -20.499 24.998 -36.498t37.498 -24.999
q21.498 -8.99902 45.4971 -8.99902q37.998 0 66.9961 21.499q28.998 21.498 43.9971 54.4961q8 16.999 24.499 25.999q16.499 8.99902 31.498 8.99902q26.998 0 42.9971 -18.499t15.999 -41.4971q0 -12 -3 -23.999q-13.999 -32.998 -36.498 -60.4961
q-22.498 -27.498 -51.4961 -47.4971q-28.999 -19.999 -62.9971 -30.998q-33.9971 -10.999 -71.9951 -10.999q-48.9971 0 -92.9941 18.998q-43.9971 18.999 -75.9951 50.9971t-50.9971 75.9961q-18.999 43.9971 -18.999 92.9941q0 39.9971 14.999 79.9951
q14.999 39.9971 42.4971 72.4951q27.499 32.498 65.9961 54.9971q38.498 22.498 85.4951 26.498q6.99902 14.999 18.999 31.498q11.999 16.499 34.998 16.499q23.998 0 41.9971 -18.499t17.999 -43.4971v-42.9971zM336.01 578.005q0 -24.998 -18.499 -42.9971
t-41.4971 -17.999q-25.999 0 -43.998 17.999t-17.999 42.9971v24.999q0 25.998 18.499 43.9971t43.498 17.999q23.998 0 41.9971 -17.999t17.999 -43.9971v-24.999z" />
    <glyph glyph-name="exclamdown" unicode="&#xa1;" horiz-adv-x="147" 
d="M127.002 57.0371q0 -23.999 -18.499 -42.498q-18.499 -18.498 -41.4971 -18.498q-25.998 0 -43.9971 18.498q-17.999 18.499 -17.999 42.498v384.977q0 25.998 18.499 45.9971t43.4971 19.999q23.998 0 41.9971 -19.999t17.999 -45.9971v-384.977zM127.002 580.005
q0 -24.998 -18.499 -42.9971t-41.4971 -17.999q-25.998 0 -43.9971 17.999t-17.999 42.9971v21.999q0 25.998 18.499 43.9971t43.4971 17.999q23.998 0 41.9971 -17.999t17.999 -43.9971v-21.999z" />
    <glyph glyph-name="plusminus" unicode="&#xb1;" horiz-adv-x="402" 
d="M143 455q0 26 17.5 44t43.5 18q25 0 43 -18t18 -44v-60h62q25 0 43 -18t18 -43t-18 -43.5t-43 -18.5h-62v-61q0 -26 -18 -44t-43 -18t-43 18t-18 44v61h-61q-26 0 -44 18t-18 44q0 24 18 42.5t44 18.5h61v60zM82 15q-26 0 -44 18t-18 42q0 25 18 43.5t44 18.5h245
q25 0 43 -18t18 -44q0 -23 -18 -41.5t-43 -18.5h-245z" />
    <glyph glyph-name="degree" unicode="&#xb0;" horiz-adv-x="295" 
d="M26 520q0 29 11 54.5t30 44.5t44.5 30t54.5 11t54.5 -11t44.5 -30t30 -44.5t11 -54.5t-11 -54.5t-30 -44.5t-44.5 -30t-54.5 -11t-54.5 11t-44.5 30t-30 44.5t-11 54.5zM146 520q0 -20 20 -20q22 0 22 20q0 22 -22 22q-20 0 -20 -22z" />
    <glyph glyph-name="at" unicode="@" horiz-adv-x="530" 
d="M26 299q0 51 19.5 95.5t53 77.5t79 52.5t96.5 19.5q50 0 94.5 -19.5t78 -52.5t53 -77.5t19.5 -95.5v-82q0 -17 -6 -38.5t-19.5 -40.5t-36 -32t-54.5 -13h-129q-26 0 -49 10t-40 27t-27 40t-10 49v77q0 27 10 50t27 40t40 26.5t49 9.5t48.5 -9.5t39.5 -26.5t26.5 -40
t9.5 -50v-79q0 -5 1 -9t4 -5q4 0 6 5t2 9v82q0 27 -11.5 51.5t-30 43t-43.5 29.5t-52 11q-29 0 -54 -11t-43.5 -29.5t-29 -43t-10.5 -51.5v-82q0 -28 11 -52.5t29.5 -43t43.5 -29t53 -10.5h165q9 0 14.5 -5.5t5.5 -13.5t-6 -14q-34 -36 -80 -56.5t-99 -20.5q-51 0 -96 19.5
t-79 52.5t-53.5 77.5t-19.5 95.5v82zM291 296q0 8 -5 13.5t-12 5.5q-8 0 -13.5 -5.5t-5.5 -13.5v-77q0 -7 5.5 -12t13.5 -5q7 0 12 5t5 12v77z" />
    <glyph glyph-name="scaron" unicode="&#x161;" horiz-adv-x="411" 
d="M245 674q17 11 34 11q23 0 41.5 -17.5t18.5 -43.5q0 -15 -6.5 -28.5t-20.5 -22.5l-74 -49q-3 -2 -7 -4q-6 -3 -13 -3t-13 3q-4 2 -6 4l-75 49q-14 9 -20.5 22.5t-6.5 28.5q0 26 18.5 43.5t41.5 17.5q17 0 34 -11l27 -18zM32 348q0 34 13.5 62t37 48t56.5 31t72 11
q23 0 52 -7.5t54.5 -22t42.5 -36t17 -49.5q0 -25 -17 -43t-42 -18q-17 0 -29 8.5t-23.5 18t-24 18t-30.5 8.5q-26 0 -41.5 -8.5t-15.5 -20.5q0 -17 15 -23.5t42 -6.5q39 0 73 -10t59.5 -30.5t40.5 -50.5t15 -69q0 -41 -15 -71.5t-41 -50.5t-60.5 -30t-73.5 -10
q-26 0 -58 11.5t-60.5 31t-48 44.5t-19.5 53q0 24 17.5 42.5t44.5 18.5q19 0 34 -10.5t22 -26.5q8 -20 29 -30.5t41 -10.5q27 0 46.5 8t19.5 31q0 22 -19 30t-47 8q-39 0 -72 7.5t-56.5 25.5t-37 47t-13.5 72z" />
    <glyph glyph-name="Ydieresis" unicode="&#x178;" horiz-adv-x="517" 
d="M16 601q0 26 18.5 44.5t44.5 18.5q25 0 44 -18.5t19 -44.5v-179q0 -24 9.5 -45.5t26 -37.5t38.5 -25.5t47 -9.5t46.5 9.5t37.5 25.5t25.5 37.5t9.5 45.5v179q0 26 19 44.5t45 18.5q25 0 44 -18.5t19 -44.5v-179q0 -42 -13.5 -80.5t-38 -69.5t-58.5 -53t-74 -32v-128
q0 -26 -18 -44.5t-44 -18.5t-44.5 18.5t-18.5 44.5v128q-41 10 -74.5 32t-58 53t-38 69.5t-13.5 80.5v179zM138 792q0 26 18 44t42 18q25 0 43.5 -18t18.5 -44v-26q0 -24 -18 -42t-44 -18q-23 0 -41.5 18t-18.5 42v26zM271 792q0 26 18 44t43 18q24 0 42.5 -18t18.5 -44v-26
q0 -24 -17.5 -42t-43.5 -18q-24 0 -42.5 18t-18.5 42v26z" />
    <glyph glyph-name="AE" unicode="&#xc6;" horiz-adv-x="688" 
d="M253 622q17 38 57 38h282q27 0 45 -18.5t18 -44.5q0 -25 -18 -43.5t-45 -18.5h-184v-152h79q26 0 45 -18t19 -44t-19 -44.5t-45 -18.5h-79v-133h184q27 0 45 -18t18 -44t-18 -44.5t-45 -18.5h-247q-25 0 -44 18.5t-19 44.5v109h-88q-15 -35 -30 -68t-29 -67
q-9 -17 -24 -27.5t-32 -10.5q-29 0 -45.5 20t-16.5 42q0 7 1 14t4 11zM282 379l-36 -81h36v81z" />
    <glyph glyph-name="cedilla" unicode="&#xb8;" horiz-adv-x="229" 
d="M70 28q0 11 7.5 19t19.5 8h68q11 0 19 -8t8 -19v-16q0 -7 3.5 -16t8 -19t8 -20.5t3.5 -19.5q0 -16 -6 -30t-21 -24.5t-40.5 -16.5t-65.5 -6q-24 0 -42 17.5t-18 42.5q0 16 6 26.5t15 17t20 10t21 5.5q-6 4 -10 13.5t-4 19.5v16z" />
    <glyph glyph-name="multiply" unicode="&#xd7;" horiz-adv-x="353" 
d="M54 320q-20 20 -20 44q0 25 18 43t43 18q25 -2 43 -18l44 -44l43 44q8 8 20 13t23 5q25 0 43 -18t18 -43q0 -24 -19 -43l-43 -43q10 -11 21 -20.5t20.5 -20t15.5 -22t6 -24.5q0 -24 -17 -42.5t-45 -18.5q-11 0 -23 4.5t-20 13.5l-43 44l-44 -44q-18 -18 -43 -18t-43.5 17
t-18.5 44q0 25 19 44l44 44z" />
    <glyph glyph-name="ae" unicode="&#xe6;" horiz-adv-x="698" 
d="M27 312q0 38 15 72.5t40.5 60t60 40.5t73.5 15t73 -15t59.5 -40.5t40.5 -60t15 -72.5v-250q0 -26 -18.5 -44t-41.5 -18q-11 0 -22.5 5.5t-19.5 10.5q-20 -10 -41 -15t-45 -5q-39 0 -73 15t-60 40.5t-41 60t-15 72.5v128zM150 183q0 -27 19.5 -45.5t46.5 -18.5
q26 0 46 18.5t20 44.5v130q0 27 -19.5 46t-46.5 19q-28 0 -47 -19t-19 -46v-129zM293 312q0 38 15 72.5t40.5 60t60 40.5t73.5 15t73 -15t59.5 -40.5t40.5 -60t15 -72.5v-64q0 -26 -18 -43.5t-42 -17.5h-194q0 -29 19.5 -48.5t46.5 -19.5q10 0 23 2.5t24 16.5
q9 11 24.5 21.5t34.5 10.5q20 0 38.5 -17.5t18.5 -41.5q0 -18 -12.5 -38t-34 -37t-51.5 -28.5t-65 -11.5q-39 0 -73 15t-60 40.5t-41 60t-15 72.5v128zM416 310h132q0 29 -19.5 48t-46.5 19q-28 0 -47 -19t-19 -48z" />
    <glyph glyph-name="divide" unicode="&#xf7;" horiz-adv-x="381" 
d="M126 418q0 24 17.5 42t43.5 18q25 0 43.5 -18t18.5 -42q0 -26 -18 -44t-44 -18q-25 0 -43 18t-18 44zM125 144q0 26 17.5 43.5t43.5 17.5q25 0 43.5 -17.5t18.5 -43.5q0 -25 -18 -43.5t-44 -18.5q-25 0 -43 18.5t-18 43.5zM70 219q-25 0 -43 18t-18 44q0 24 18 42t43 18
h245q26 0 43.5 -17.5t17.5 -42.5t-17.5 -43.5t-43.5 -18.5h-245z" />
    <glyph glyph-name="Scaron" unicode="&#x160;" horiz-adv-x="527" 
d="M303 841q17 11 34 11q23 0 41.5 -17.5t18.5 -43.5q0 -15 -6.5 -28.5t-20.5 -22.5l-74 -49q-3 -2 -7 -4q-6 -3 -13 -3t-13 3q-4 2 -6 4l-75 49q-14 9 -20.5 22.5t-6.5 28.5q0 26 18.5 43.5t41.5 17.5q17 0 34 -11l27 -18zM82 240q22 0 38.5 -15t26.5 -37q14 -29 45 -49.5
t75 -20.5q23 0 45 5.5t39 16t27.5 27t10.5 38.5t-10 38t-27 26.5t-39 15.5t-46 5q-48 0 -89.5 11.5t-71.5 34.5t-47 58.5t-17 83.5q0 44 16 79.5t45.5 60t71 37.5t92.5 13q1 0 23.5 -2t53.5 -12t64.5 -31.5t56.5 -61.5q10 -15 10 -36q0 -10 -4.5 -21t-12.5 -20t-19.5 -15
t-25.5 -6q-22 0 -37 12.5t-29.5 27t-33 27t-47.5 12.5q-55 0 -77 -19.5t-22 -44.5q0 -34 29 -48.5t71 -14.5q51 0 96 -13.5t79 -40t54 -65.5t20 -91q0 -53 -20 -93t-54.5 -66.5t-80.5 -40t-98 -13.5q-10 0 -39 4.5t-64.5 20t-71.5 46.5t-60 84q-7 16 -7 30q0 27 17.5 45
t43.5 18z" />
    <glyph glyph-name="trademark" unicode="&#x2122;" horiz-adv-x="746" 
d="M73 555q-20 0 -33 12t-13 32q0 18 13 31.5t33 13.5h183q20 0 32.5 -13.5t12.5 -31.5q0 -19 -12.5 -31.5t-32.5 -12.5h-47v-225q0 -17 -13.5 -30.5t-31.5 -13.5q-17 0 -31 13.5t-14 30.5v225h-46zM289 509q0 28 10 53t27.5 43.5t41.5 29.5t53 11q48 0 81 -28q32 28 82 28
q28 0 52.5 -11t41.5 -29.5t27 -43.5t10 -53v-179q0 -17 -12.5 -30.5t-32.5 -13.5q-17 0 -30.5 13.5t-13.5 30.5v179q0 20 -11.5 33.5t-30.5 13.5t-28 -13.5t-9 -33.5v-179q0 -17 -12.5 -30.5t-32.5 -13.5t-32 13.5t-12 30.5v180q0 19 -10 32.5t-27 13.5q-18 0 -29.5 -13.5
t-11.5 -33.5v-179q0 -17 -14.5 -30.5t-31.5 -13.5q-19 0 -32 13.5t-13 30.5v179z" />
    <glyph glyph-name="Zcaron" unicode="&#x17d;" horiz-adv-x="547" 
d="M305 839q17 11 34 11q23 0 41.5 -17.5t18.5 -43.5q0 -15 -6.5 -28.5t-20.5 -22.5l-74 -49q-3 -2 -7 -4q-6 -3 -13 -3t-13 3q-4 2 -6 4l-75 49q-14 9 -20.5 22.5t-6.5 28.5q0 26 18.5 43.5t41.5 17.5q17 0 34 -11l27 -18zM95 535q-27 0 -45 18t-18 44t18 44.5t45 18.5h357
q31 0 52 -15t21 -46q0 -17 -9 -35l-310 -439h263q26 0 44.5 -18t18.5 -44t-18.5 -44.5t-44.5 -18.5h-378q-32 0 -51 18t-19 44q0 7 3 17.5t9 19.5l308 436h-246z" />
    <glyph glyph-name="zcaron" unicode="&#x17e;" horiz-adv-x="444" 
d="M262 676q17 11 34 11q23 0 41.5 -17.5t18.5 -43.5q0 -15 -6.5 -28.5t-20.5 -22.5l-74 -49q-3 -2 -7 -4q-6 -3 -13 -3t-13 3q-4 2 -6 4l-75 49q-14 9 -20.5 22.5t-6.5 28.5q0 26 18.5 43.5t41.5 17.5q17 0 34 -11l27 -18zM104 374q-26 0 -43.5 18t-17.5 43q0 24 17.5 42.5
t43.5 18.5h242q29 0 50 -15t21 -44q0 -8 -3 -17.5t-10 -19.5l-193 -278h148q25 0 43 -18t18 -42q0 -25 -18 -43.5t-43 -18.5h-262q-30 0 -49.5 17.5t-19.5 45.5q0 8 4 16t9 16l195 279h-132z" />
    <glyph glyph-name="ordmasculine" unicode="&#xba;" horiz-adv-x="419" 
d="M82.7871 535.957q0 25.9375 10.2344 49.4863q10.2354 23.5479 27.6338 40.9531q17.3994 17.4053 40.9385 27.6436q23.54 10.2383 50.1504 10.2383t49.8086 -10.2383t40.5977 -27.6436q17.3984 -17.4053 27.6338 -40.9531q10.2344 -23.5488 10.2344 -49.4863v-87.3672
q0 -25.9365 -9.89355 -49.4844q-9.89355 -23.5488 -27.292 -40.9541q-17.3994 -17.4053 -40.9395 -27.6436q-23.5391 -10.2383 -50.1494 -10.2383t-49.8086 10.2383q-23.1992 10.2383 -40.9395 27.6436q-17.7393 17.4053 -27.9746 40.9541
q-10.2344 23.5479 -10.2344 49.4844v87.3672zM166.711 448.59q0 -18.4287 13.3057 -31.3975q13.3047 -12.9678 31.7275 -12.9678q19.1045 0 32.0684 12.9678q12.9639 12.9688 12.9639 31.3975v87.3672q0 18.4297 -13.3047 31.3984q-13.3057 12.9678 -31.7275 12.9678
q-19.1045 0 -32.0684 -12.9678q-12.9648 -12.9688 -12.9648 -31.3984v-87.3672z" />
    <glyph glyph-name="ordfeminine" unicode="&#xaa;" horiz-adv-x="422" 
d="M79.9482 535.195q0 26.0879 10.3174 49.7734q10.3184 23.6846 27.8594 41.1914q17.54 17.5059 41.2715 27.8037t50.5586 10.2979q26.8262 0 50.2139 -10.2979t40.9277 -27.8037q17.541 -17.5068 27.8594 -41.1914q10.3174 -23.6855 10.3174 -49.7734v-171.631
q0 -17.8496 -12.7256 -30.207t-28.5459 -12.3574q-7.56641 0 -15.4775 3.77539q-7.91016 3.77637 -13.4131 7.20898q-13.7578 -6.86523 -28.2021 -10.2979q-14.4453 -3.43262 -30.9541 -3.43262q-26.8271 0 -50.2148 10.2979q-23.3867 10.2979 -41.2715 27.8037
q-17.8848 17.5068 -28.2031 41.1914q-10.3174 23.6855 -10.3174 49.7734v87.875zM164.556 446.634q0 -18.5361 13.4131 -31.2373q13.4141 -12.7002 31.9863 -12.7002q17.8848 0 31.6416 12.7002q13.7568 12.7012 13.7568 30.5508v89.248q0 18.5361 -13.4131 31.5801
t-31.9854 13.0439q-19.2607 0 -32.3301 -13.0439t-13.0693 -31.5801v-88.5615z" />
    <glyph glyph-name="a" unicode="a" horiz-adv-x="432" 
d="M29 312q0 38 15 72.5t40.5 60t60 40.5t73.5 15t73 -15t59.5 -40.5t40.5 -60t15 -72.5v-250q0 -26 -18.5 -44t-41.5 -18q-11 0 -22.5 5.5t-19.5 10.5q-20 -10 -41 -15t-45 -5q-39 0 -73 15t-60 40.5t-41 60t-15 72.5v128zM152 183q0 -27 19.5 -45.5t46.5 -18.5
q26 0 46 18.5t20 44.5v130q0 27 -19.5 46t-46.5 19q-28 0 -47 -19t-19 -46v-129z" />
    <glyph glyph-name="percent" unicode="%" horiz-adv-x="685" 
d="M24 524q0 28 10.5 52.5t29.5 43t44 29.5t54 11q28 0 53 -11t43.5 -29.5t29.5 -43t11 -52.5v-88q0 -29 -11 -53.5t-29.5 -43t-43.5 -29t-53 -10.5t-53 10.5t-44 29t-30 43t-11 53.5v88zM125 436q0 -14 10.5 -24.5t26.5 -10.5q15 0 25.5 10.5t10.5 24.5v88q0 14 -11 24
t-25 10q-16 0 -26.5 -10t-10.5 -24v-88zM380 220q0 28 10.5 52.5t29.5 43t44 29.5t54 11q28 0 53 -11t43.5 -29.5t29.5 -43t11 -52.5v-88q0 -29 -11 -53.5t-29.5 -43t-43.5 -29t-53 -10.5t-53 10.5t-44 29t-30 43t-11 53.5v88zM481 132q0 -14 10.5 -24.5t26.5 -10.5
q15 0 25.5 10.5t10.5 24.5v88q0 14 -11 24t-25 10q-16 0 -26.5 -10t-10.5 -24v-88zM455 635q10 17 24 23t29 6q26 0 43 -18t17 -42q0 -8 -1.5 -16.5t-5.5 -15.5l-323 -546q-11 -18 -24 -24t-28 -6q-29 0 -45 19t-16 44q0 17 7 31z" />
    <glyph glyph-name="copyright" unicode="&#xa9;" horiz-adv-x="544" 
d="M28 326q0 54 20.5 101.5t55.5 82.5t82.5 55.5t101.5 20.5t101.5 -20.5t83 -55.5t56 -82.5t20.5 -101.5v-148q0 -54 -20.5 -101.5t-55.5 -82.5t-82.5 -55.5t-101.5 -20.5t-101.5 20.5t-83 55.5t-56 82.5t-20.5 101.5v148zM426 326q0 29 -10.5 54t-29.5 44t-44 29.5
t-54 10.5t-53.5 -10.5t-43.5 -29.5t-29.5 -44t-10.5 -54v-148q0 -29 10.5 -54t29.5 -44t44 -29.5t54 -10.5q28 0 53 10.5t44 29.5t29.5 44t10.5 54v148zM163 270q0 30 8.5 56t25 45t40.5 30t54 11q21 0 41.5 -7.5t37.5 -20.5t27.5 -31.5t10.5 -39.5q0 -20 -12 -33t-32 -13
q-15 0 -24 7.5t-16 16.5t-15 16.5t-21 7.5q-16 0 -23 -13t-7 -32v-46q0 -19 7 -32t21 -13q15 0 23 7.5t15 16.5t15.5 16.5t24.5 7.5q20 0 32 -14t12 -34q0 -15 -9 -31.5t-25 -31t-38 -24t-48 -9.5q-30 0 -53 11t-39 30.5t-24.5 45t-8.5 54.5v46z" />
    <glyph glyph-name="registered" unicode="&#xae;" horiz-adv-x="544" 
d="M167 366q0 19 12.5 31.5t31.5 12.5h72q31 0 55.5 -10t40.5 -26t24.5 -36.5t8.5 -41.5q0 -26 -12 -48.5t-36 -36.5q6 -9 13.5 -19.5t14.5 -21t11.5 -20t4.5 -16.5q0 -13 -11.5 -26.5t-27.5 -13.5q-14 0 -25.5 8.5t-16.5 14.5l-49 68h-26v-48q0 -19 -12 -31t-29 -12
q-19 0 -31.5 12t-12.5 31v229zM252 325v-55h31q28 0 36.5 6.5t8.5 23.5q0 25 -45 25h-31zM28 326q0 54 20.5 101.5t55.5 82.5t82.5 55.5t101.5 20.5t101.5 -20.5t83 -55.5t56 -82.5t20.5 -101.5v-148q0 -54 -20.5 -101.5t-55.5 -82.5t-82.5 -55.5t-101.5 -20.5t-101.5 20.5
t-83 55.5t-56 82.5t-20.5 101.5v148zM426 326q0 29 -10.5 54t-29.5 44t-44 29.5t-54 10.5t-53.5 -10.5t-43.5 -29.5t-29.5 -44t-10.5 -54v-148q0 -29 10.5 -54t29.5 -44t44 -29.5t54 -10.5q28 0 53 10.5t44 29.5t29.5 44t10.5 54v148z" />
    <glyph glyph-name="Euro" unicode="&#x20ac;" horiz-adv-x="582" 
d="M81 336q-25 0 -43 18t-18 44q0 24 18 42.5t43 18.5q5 47 26 87.5t54 70.5t76 47.5t92 17.5q75 0 135 -40.5t89 -104.5q5 -8 6.5 -16.5t1.5 -16.5q0 -23 -16.5 -42.5t-45.5 -19.5q-18 0 -34 9.5t-24 28.5q-14 32 -43.5 54t-68.5 22q-23 0 -43 -7.5t-35.5 -20.5t-26 -30.5
t-14.5 -38.5h116q26 0 43.5 -18t17.5 -43t-17.5 -43.5t-43.5 -18.5h-118v-13h118q26 0 43.5 -18t17.5 -44q0 -24 -17.5 -42.5t-43.5 -18.5h-116q9 -42 42 -68.5t77 -26.5q38 0 68.5 22t44.5 55q8 22 23.5 29.5t33.5 7.5q29 0 45.5 -19.5t16.5 -42.5q0 -14 -5 -24
q-14 -32 -37 -60t-52.5 -49t-64.5 -33t-73 -12q-48 0 -90.5 17t-75.5 47t-54 70.5t-26 86.5q-26 0 -44.5 18.5t-18.5 42.5q0 25 18 43.5t43 18.5v13z" />
    <glyph glyph-name="yen" unicode="&#xa5;" horiz-adv-x="538" 
d="M397 272q23 0 38.5 -15.5t15.5 -38.5q0 -22 -15.5 -38t-38.5 -16h-63v-12h63q23 0 38.5 -15.5t15.5 -38.5q0 -22 -15.5 -38t-38.5 -16h-65q-5 -20 -21.5 -34t-38.5 -14t-39 14t-22 34h-69q-22 0 -37.5 16t-15.5 38t15.5 38t37.5 16h67v12h-67q-22 0 -37.5 16t-15.5 38
t15.5 38t37.5 16h49q-37 12 -67.5 34.5t-52.5 52.5t-34 66.5t-12 76.5v99q0 26 18.5 44.5t44.5 18.5q25 0 44 -18.5t19 -44.5v-99q0 -24 9.5 -45.5t26 -37.5t38.5 -25.5t47 -9.5t46.5 9.5t37.5 25.5t25.5 37.5t9.5 45.5v99q0 26 19 44.5t45 18.5q25 0 44 -18.5t19 -44.5v-99
q0 -40 -12 -76.5t-34 -66.5t-53 -52.5t-68 -34.5h46z" />
    <glyph glyph-name="slash" unicode="/" horiz-adv-x="434" 
d="M335 635q10 17 24 23t29 6q26 0 43 -18t17 -42q0 -8 -1.5 -16.5t-5.5 -15.5l-323 -546q-11 -18 -24 -24t-28 -6q-29 0 -45 19t-16 44q0 17 7 31z" />
    <glyph glyph-name="perthousand" unicode="&#x2030;" horiz-adv-x="865" 
d="M383 220q0 28 10.5 52.5t29.5 43t44 29.5t54 11q24 0 46.5 -13t39.5 -27q18 14 40 27t48 13q28 0 53 -11t43.5 -29.5t29.5 -43t11 -52.5v-88q0 -29 -11 -53.5t-29.5 -43t-43.5 -29t-53 -10.5q-25 0 -47 12t-40 26q-18 -14 -40 -26t-47 -12q-28 0 -53 10.5t-44 29t-30 43
t-11 53.5v88zM27 524q0 28 10.5 52.5t29.5 43t44 29.5t54 11q28 0 53 -11t43.5 -29.5t29.5 -43t11 -52.5v-88q0 -29 -11 -53.5t-29.5 -43t-43.5 -29t-53 -10.5t-53 10.5t-44 29t-30 43t-11 53.5v88zM128 436q0 -14 10.5 -24.5t26.5 -10.5q15 0 25.5 10.5t10.5 24.5v88
q0 14 -11 24t-25 10q-16 0 -26.5 -10t-10.5 -24v-88zM484 132q0 -14 10.5 -24.5t26.5 -10.5q14 0 24 9t12 23v91q0 14 -11 24t-25 10q-16 0 -26.5 -10t-10.5 -24v-88zM658 132q0 -14 10.5 -24.5t26.5 -10.5q15 0 25.5 10.5t10.5 24.5v88q0 14 -11 24t-25 10q-16 0 -26.5 -10
t-10.5 -24v-88zM458 635q10 17 24 23t29 6q26 0 43 -18t17 -42q0 -8 -1.5 -16.5t-5.5 -15.5l-323 -546q-11 -18 -24 -24t-28 -6q-29 0 -45 19t-16 44q0 17 7 31z" />
    <glyph glyph-name="b" unicode="b" horiz-adv-x="434" 
d="M33 591q0 26 18 44t44 18q24 0 42.5 -18t18.5 -44v-104q32 13 66 13q39 0 73.5 -15t60 -40.5t40 -60t14.5 -72.5v-128q0 -38 -15 -72.5t-40.5 -60t-59.5 -40.5t-73 -15t-73.5 15t-60 40.5t-40.5 60t-15 72.5v407zM156 185q0 -27 19 -46.5t47 -19.5q27 0 46.5 19.5
t19.5 46.5v126q0 27 -19.5 46.5t-46.5 19.5t-46.5 -20t-19.5 -46v-126z" />
    <glyph glyph-name="germandbls" unicode="&#xdf;" horiz-adv-x="506" 
d="M207 423q0 26 18.5 44.5t44.5 18.5h1q10 0 17.5 7t7.5 18q0 10 -7.5 17t-18.5 7h-47q-28 0 -47.5 -19.5t-19.5 -46.5v-407q0 -26 -18.5 -44t-42.5 -18q-25 0 -43 18t-18 44v410q0 39 15 73.5t40.5 59.5t60 40t73.5 15h47q31 0 58.5 -11.5t48 -32t32.5 -47.5t12 -58
q0 -20 -3 -34.5t-11 -29.5q51 -33 80 -86t29 -118q0 -51 -19 -95t-52.5 -77t-78 -52t-95.5 -19h-18q-26 0 -44.5 18.5t-18.5 44.5t18.5 44.5t44.5 18.5h18q25 0 47 9t38 25t25.5 37.5t9.5 45.5q0 23 -9.5 44t-25 36.5t-36.5 25.5t-45 11h-5q-26 0 -44.5 18.5t-18.5 44.5z
" />
    <glyph glyph-name="florin" unicode="&#x192;" horiz-adv-x="400" 
d="M-33 -35q27 0 46.5 18.5t19.5 44.5v411v5v21q0 40 15 74t41 59.5t61 40t74 14.5q7 0 28 -2.5t46.5 -14t52 -35t44.5 -65.5q3 -6 4 -12.5t1 -10.5q0 -26 -17.5 -43.5t-43.5 -17.5q-23 0 -35.5 12.5t-22.5 27t-22.5 27t-36.5 12.5q-28 0 -47.5 -19.5t-19.5 -46.5v-16v-139
h69q25 0 43 -18.5t18 -43.5q0 -26 -18 -43.5t-43 -17.5h-69v-156q0 -39 -15 -73.5t-40.5 -60t-59.5 -40t-73 -14.5q-25 0 -42.5 18t-17.5 44q0 24 17.5 42t42.5 18z" />
    <glyph glyph-name="Agrave" unicode="&#xc0;" horiz-adv-x="615" 
d="M251 626q19 38 57 38q20 0 35.5 -11.5t22.5 -26.5l231 -544q2 -5 4 -12.5t2 -11.5q0 -22 -17 -42t-46 -20q-20 0 -34.5 11t-22.5 27l-57 138h-233l-58 -138q-18 -38 -58 -38q-28 0 -45 20t-17 42q0 15 5 25zM308 444q-15 -35 -24.5 -58t-16.5 -38.5t-12.5 -26.5
t-10.5 -23h128zM210 773q-8 12 -8 31q0 23 17 42.5t44 19.5q15 0 30 -8.5t24 -22.5l34 -62q4 -8 6.5 -15.5t2.5 -15.5q0 -25 -17.5 -43t-44.5 -18q-16 0 -30 7t-22 22z" />
    <glyph glyph-name="Aacute" unicode="&#xc1;" horiz-adv-x="615" 
d="M251 626q19 38 57 38q20 0 35.5 -11.5t22.5 -26.5l231 -544q2 -5 4 -12.5t2 -11.5q0 -22 -17 -42t-46 -20q-20 0 -34.5 11t-22.5 27l-57 138h-233l-58 -138q-18 -38 -58 -38q-28 0 -45 20t-17 42q0 15 5 25zM308 444q-15 -35 -24.5 -58t-16.5 -38.5t-12.5 -26.5
t-10.5 -23h128zM313 836q17 30 52 30q27 0 44 -18.5t17 -41.5q0 -8 -1.5 -16.5t-7.5 -16.5l-36 -63q-19 -29 -51 -29q-27 0 -45 17.5t-18 42.5q0 17 9 32z" />
    <glyph glyph-name="Acircumflex" unicode="&#xc2;" horiz-adv-x="615" 
d="M251 626q19 38 57 38q20 0 35.5 -11.5t22.5 -26.5l231 -544q2 -5 4 -12.5t2 -11.5q0 -22 -17 -42t-46 -20q-20 0 -34.5 11t-22.5 27l-57 138h-233l-58 -138q-18 -38 -58 -38q-28 0 -45 20t-17 42q0 15 5 25zM308 444q-15 -35 -24.5 -58t-16.5 -38.5t-12.5 -26.5
t-10.5 -23h128zM280 693q-17 -11 -34 -11q-23 0 -41.5 17.5t-18.5 43.5q0 15 6.5 28.5t20.5 22.5l74 49q3 1 7 3q8 4 13 4t13 -4q4 -2 7 -3l74 -49q14 -9 20.5 -22.5t6.5 -28.5q0 -26 -18.5 -43.5t-41.5 -17.5q-17 0 -34 11l-27 18z" />
    <glyph glyph-name="Atilde" unicode="&#xc3;" horiz-adv-x="615" 
d="M251 626q19 38 57 38q20 0 35.5 -11.5t22.5 -26.5l231 -544q2 -5 4 -12.5t2 -11.5q0 -22 -17 -42t-46 -20q-20 0 -34.5 11t-22.5 27l-57 138h-233l-58 -138q-18 -38 -58 -38q-28 0 -45 20t-17 42q0 15 5 25zM308 444q-15 -35 -24.5 -58t-16.5 -38.5t-12.5 -26.5
t-10.5 -23h128zM162 743q0 22 11.5 36t28 22.5t33.5 12t29 3.5q18 0 34.5 -8t33.5 -8t29.5 7.5t28.5 7.5q25 0 43.5 -17.5t18.5 -43.5q0 -21 -12.5 -35.5t-30 -22.5t-36.5 -11.5t-32 -3.5q-18 0 -33 5.5t-30 5.5t-27 -5t-26 -5q-24 0 -43.5 17.5t-19.5 42.5z" />
    <glyph glyph-name="Aring" unicode="&#xc5;" horiz-adv-x="615" 
d="M307 896q21 0 40.5 -8.5t34 -22.5t23 -34t8.5 -42q0 -21 -8.5 -40.5t-23 -33.5t-34 -22.5t-40.5 -8.5q-22 0 -41.5 8.5t-33.5 22.5t-22.5 33.5t-8.5 40.5q0 22 8.5 42t22.5 34t33.5 22.5t41.5 8.5zM292 789q0 -6 4.5 -10.5t10.5 -4.5t10.5 4.5t4.5 10.5t-4.5 10.5
t-10.5 4.5t-10.5 -4.5t-4.5 -10.5zM251 626q19 38 57 38q20 0 35.5 -11.5t22.5 -26.5l231 -544q2 -5 4 -12.5t2 -11.5q0 -22 -17 -42t-46 -20q-20 0 -34.5 11t-22.5 27l-57 138h-233l-58 -138q-18 -38 -58 -38q-28 0 -45 20t-17 42q0 15 5 25zM308 444q-15 -35 -24.5 -58
t-16.5 -38.5t-12.5 -26.5t-10.5 -23h128z" />
    <glyph glyph-name="Egrave" unicode="&#xc8;" horiz-adv-x="555" 
d="M35 597q0 26 18 44.5t45 18.5h367q26 0 44 -18.5t18 -44.5q0 -25 -18 -43.5t-44 -18.5h-305v-152h198q26 0 44 -18t18 -44t-18 -44.5t-44 -18.5h-198v-133h305q26 0 44 -18t18 -44t-18 -44.5t-44 -18.5h-367q-26 0 -44.5 18.5t-18.5 44.5v534zM132 774q-8 12 -8 31
q0 23 17 42.5t44 19.5q15 0 30 -8.5t24 -22.5l34 -62q4 -8 6.5 -15.5t2.5 -15.5q0 -25 -17.5 -43t-44.5 -18q-16 0 -30 7t-22 22z" />
    <glyph glyph-name="Adieresis" unicode="&#xc4;" horiz-adv-x="615" 
d="M251 626q19 38 57 38q20 0 35.5 -11.5t22.5 -26.5l231 -544q2 -5 4 -12.5t2 -11.5q0 -22 -17 -42t-46 -20q-20 0 -34.5 11t-22.5 27l-57 138h-233l-58 -138q-18 -38 -58 -38q-28 0 -45 20t-17 42q0 15 5 25zM308 444q-15 -35 -24.5 -58t-16.5 -38.5t-12.5 -26.5
t-10.5 -23h128zM180 768q0 26 18 44t42 18q25 0 43.5 -18t18.5 -44v-26q0 -24 -18 -42t-44 -18q-23 0 -41.5 18t-18.5 42v26zM313 768q0 26 18 44t43 18q24 0 42.5 -18t18.5 -44v-26q0 -24 -17.5 -42t-43.5 -18q-24 0 -42.5 18t-18.5 42v26z" />
    <glyph glyph-name="Eacute" unicode="&#xc9;" horiz-adv-x="555" 
d="M35 597q0 26 18 44.5t45 18.5h367q26 0 44 -18.5t18 -44.5q0 -25 -18 -43.5t-44 -18.5h-305v-152h198q26 0 44 -18t18 -44t-18 -44.5t-44 -18.5h-198v-133h305q26 0 44 -18t18 -44t-18 -44.5t-44 -18.5h-367q-26 0 -44.5 18.5t-18.5 44.5v534zM169 837q17 30 52 30
q27 0 44 -18.5t17 -41.5q0 -8 -1.5 -16.5t-7.5 -16.5l-36 -63q-19 -29 -51 -29q-27 0 -45 17.5t-18 42.5q0 17 9 32z" />
    <glyph glyph-name="Ecircumflex" unicode="&#xca;" horiz-adv-x="555" 
d="M35 597q0 26 18 44.5t45 18.5h367q26 0 44 -18.5t18 -44.5q0 -25 -18 -43.5t-44 -18.5h-305v-152h198q26 0 44 -18t18 -44t-18 -44.5t-44 -18.5h-198v-133h305q26 0 44 -18t18 -44t-18 -44.5t-44 -18.5h-367q-26 0 -44.5 18.5t-18.5 44.5v534zM254 693q-17 -11 -34 -11
q-23 0 -41.5 17.5t-18.5 43.5q0 15 6.5 28.5t20.5 22.5l74 49q3 1 7 3q8 4 13 4t13 -4q4 -2 7 -3l74 -49q14 -9 20.5 -22.5t6.5 -28.5q0 -26 -18.5 -43.5t-41.5 -17.5q-17 0 -34 11l-27 18z" />
    <glyph glyph-name="Ntilde" unicode="&#xd1;" horiz-adv-x="550" 
d="M32 436q0 50 19.5 95t52.5 78.5t78 53t96 19.5t95.5 -19.5t78 -53t53 -78.5t19.5 -95v-377q0 -26 -18 -44.5t-44 -18.5q-25 0 -44 18.5t-19 44.5v377q0 25 -9.5 46.5t-26 37.5t-38.5 25.5t-47 9.5t-46.5 -9.5t-38 -25.5t-26 -37.5t-9.5 -46.5v-377q0 -26 -18.5 -44.5
t-44.5 -18.5t-44.5 18.5t-18.5 44.5v377zM138 762q0 22 11.5 36t28 22.5t33.5 12t29 3.5q18 0 34.5 -8t33.5 -8t29.5 7.5t28.5 7.5q25 0 43.5 -17.5t18.5 -43.5q0 -21 -12.5 -35.5t-30 -22.5t-36.5 -11.5t-32 -3.5q-18 0 -33 5.5t-30 5.5t-27 -5t-26 -5q-24 0 -43.5 17.5
t-19.5 42.5z" />
    <glyph glyph-name="Idieresis" unicode="&#xcf;" horiz-adv-x="196" 
d="M35 601q0 26 18.5 44.5t44.5 18.5q25 0 44 -18.5t19 -44.5v-542q0 -26 -18.5 -44.5t-44.5 -18.5q-25 0 -44 18.5t-19 44.5v542zM-28 767q0 26 18 44t42 18q25 0 43.5 -18t18.5 -44v-26q0 -24 -18 -42t-44 -18q-23 0 -41.5 18t-18.5 42v26zM105 767q0 26 18 44t43 18
q24 0 42.5 -18t18.5 -44v-26q0 -24 -17.5 -42t-43.5 -18q-24 0 -42.5 18t-18.5 42v26z" />
    <glyph glyph-name="Icircumflex" unicode="&#xce;" horiz-adv-x="196" 
d="M35 601q0 26 18.5 44.5t44.5 18.5q25 0 44 -18.5t19 -44.5v-542q0 -26 -18.5 -44.5t-44.5 -18.5q-25 0 -44 18.5t-19 44.5v542zM72 692q-17 -11 -34 -11q-23 0 -41.5 17.5t-18.5 43.5q0 15 6.5 28.5t20.5 22.5l74 49q3 1 7 3q8 4 13 4t13 -4q4 -2 7 -3l74 -49
q14 -9 20.5 -22.5t6.5 -28.5q0 -26 -18.5 -43.5t-41.5 -17.5q-17 0 -34 11l-27 18z" />
    <glyph glyph-name="Eth" unicode="&#xd0;" horiz-adv-x="571" 
d="M56 597q0 26 18 44.5t45 18.5h183q51 0 96 -19t78.5 -52t52.5 -77t19 -95v-174q0 -51 -19 -95t-52.5 -77t-78 -52t-95.5 -19h-184q-26 0 -44.5 18.5t-18.5 44.5v534zM181 535v-410h122q25 0 47 9.5t38 25.5t25.5 37.5t9.5 45.5v174q0 24 -9.5 45.5t-25.5 37.5t-38.5 25.5
t-47.5 9.5h-121zM62 217q-25 0 -43 18t-18 44q0 24 18 42t43 18h245q26 0 43.5 -17.5t17.5 -42.5t-17.5 -43.5t-43.5 -18.5h-245z" />
    <glyph glyph-name="Iacute" unicode="&#xcd;" horiz-adv-x="196" 
d="M35 601q0 26 18.5 44.5t44.5 18.5q25 0 44 -18.5t19 -44.5v-542q0 -26 -18.5 -44.5t-44.5 -18.5q-25 0 -44 18.5t-19 44.5v542zM88 836q17 30 52 30q27 0 44 -18.5t17 -41.5q0 -8 -1.5 -16.5t-7.5 -16.5l-36 -63q-19 -29 -51 -29q-27 0 -45 17.5t-18 42.5q0 17 9 32z" />
    <glyph glyph-name="Igrave" unicode="&#xcc;" horiz-adv-x="196" 
d="M35 601q0 26 18.5 44.5t44.5 18.5q25 0 44 -18.5t19 -44.5v-542q0 -26 -18.5 -44.5t-44.5 -18.5q-25 0 -44 18.5t-19 44.5v542zM-6 773q-8 12 -8 31q0 23 17 42.5t44 19.5q15 0 30 -8.5t24 -22.5l34 -62q4 -8 6.5 -15.5t2.5 -15.5q0 -25 -17.5 -43t-44.5 -18q-16 0 -30 7
t-22 22z" />
    <glyph glyph-name="Edieresis" unicode="&#xcb;" horiz-adv-x="555" 
d="M35 597q0 26 18 44.5t45 18.5h367q26 0 44 -18.5t18 -44.5q0 -25 -18 -43.5t-44 -18.5h-305v-152h198q26 0 44 -18t18 -44t-18 -44.5t-44 -18.5h-198v-133h305q26 0 44 -18t18 -44t-18 -44.5t-44 -18.5h-367q-26 0 -44.5 18.5t-18.5 44.5v534zM150 768q0 26 18 44t42 18
q25 0 43.5 -18t18.5 -44v-26q0 -24 -18 -42t-44 -18q-23 0 -41.5 18t-18.5 42v26zM283 768q0 26 18 44t43 18q24 0 42.5 -18t18.5 -44v-26q0 -24 -17.5 -42t-43.5 -18q-24 0 -42.5 18t-18.5 42v26z" />
    <glyph glyph-name="Ugrave" unicode="&#xd9;" horiz-adv-x="551" 
d="M32 597q0 26 18.5 44.5t44.5 18.5q25 0 44 -18.5t19 -44.5v-371q0 -25 9.5 -46.5t26 -37.5t38.5 -25.5t47 -9.5t47 9.5t38 25.5t25.5 37.5t9.5 46.5v371q0 26 18.5 44.5t44.5 18.5q25 0 44 -18.5t19 -44.5v-371q0 -50 -19.5 -94.5t-52.5 -78t-78 -53t-96 -19.5
t-95.5 19.5t-78.5 53t-53.5 78t-19.5 94.5v371zM182 774q-8 12 -8 31q0 23 17 42.5t44 19.5q15 0 30 -8.5t24 -22.5l34 -62q4 -8 6.5 -15.5t2.5 -15.5q0 -25 -17.5 -43t-44.5 -18q-16 0 -30 7t-22 22z" />
    <glyph glyph-name="Uacute" unicode="&#xda;" horiz-adv-x="551" 
d="M32 597q0 26 18.5 44.5t44.5 18.5q25 0 44 -18.5t19 -44.5v-371q0 -25 9.5 -46.5t26 -37.5t38.5 -25.5t47 -9.5t47 9.5t38 25.5t25.5 37.5t9.5 46.5v371q0 26 18.5 44.5t44.5 18.5q25 0 44 -18.5t19 -44.5v-371q0 -50 -19.5 -94.5t-52.5 -78t-78 -53t-96 -19.5
t-95.5 19.5t-78.5 53t-53.5 78t-19.5 94.5v371zM266 836q17 30 52 30q27 0 44 -18.5t17 -41.5q0 -8 -1.5 -16.5t-7.5 -16.5l-36 -63q-19 -29 -51 -29q-27 0 -45 17.5t-18 42.5q0 17 9 32z" />
    <glyph glyph-name="Ucircumflex" unicode="&#xdb;" horiz-adv-x="551" 
d="M32 597q0 26 18.5 44.5t44.5 18.5q25 0 44 -18.5t19 -44.5v-371q0 -25 9.5 -46.5t26 -37.5t38.5 -25.5t47 -9.5t47 9.5t38 25.5t25.5 37.5t9.5 46.5v371q0 26 18.5 44.5t44.5 18.5q25 0 44 -18.5t19 -44.5v-371q0 -50 -19.5 -94.5t-52.5 -78t-78 -53t-96 -19.5
t-95.5 19.5t-78.5 53t-53.5 78t-19.5 94.5v371zM248 692q-17 -11 -34 -11q-23 0 -41.5 17.5t-18.5 43.5q0 15 6.5 28.5t20.5 22.5l74 49q3 1 7 3q8 4 13 4t13 -4q4 -2 7 -3l74 -49q14 -9 20.5 -22.5t6.5 -28.5q0 -26 -18.5 -43.5t-41.5 -17.5q-17 0 -34 11l-27 18z" />
    <glyph glyph-name="Udieresis" unicode="&#xdc;" horiz-adv-x="551" 
d="M32 597q0 26 18.5 44.5t44.5 18.5q25 0 44 -18.5t19 -44.5v-371q0 -25 9.5 -46.5t26 -37.5t38.5 -25.5t47 -9.5t47 9.5t38 25.5t25.5 37.5t9.5 46.5v371q0 26 18.5 44.5t44.5 18.5q25 0 44 -18.5t19 -44.5v-371q0 -50 -19.5 -94.5t-52.5 -78t-78 -53t-96 -19.5
t-95.5 19.5t-78.5 53t-53.5 78t-19.5 94.5v371zM148 767q0 26 18 44t42 18q25 0 43.5 -18t18.5 -44v-26q0 -24 -18 -42t-44 -18q-23 0 -41.5 18t-18.5 42v26zM281 767q0 26 18 44t43 18q24 0 42.5 -18t18.5 -44v-26q0 -24 -17.5 -42t-43.5 -18q-24 0 -42.5 18t-18.5 42v26z
" />
    <glyph glyph-name="Yacute" unicode="&#xdd;" horiz-adv-x="545" 
d="M28 601q0 26 18.5 44.5t44.5 18.5q25 0 44 -18.5t19 -44.5v-179q0 -24 9.5 -45.5t26 -37.5t38.5 -25.5t47 -9.5t46.5 9.5t37.5 25.5t25.5 37.5t9.5 45.5v179q0 26 19 44.5t45 18.5q25 0 44 -18.5t19 -44.5v-179q0 -42 -13.5 -80.5t-38 -69.5t-58.5 -53t-74 -32v-128
q0 -26 -18 -44.5t-44 -18.5t-44.5 18.5t-18.5 44.5v128q-41 10 -74.5 32t-58 53t-38 69.5t-13.5 80.5v179zM265 836q17 30 52 30q27 0 44 -18.5t17 -41.5q0 -8 -1.5 -16.5t-7.5 -16.5l-36 -63q-19 -29 -51 -29q-27 0 -45 17.5t-18 42.5q0 17 9 32z" />
    <glyph glyph-name="agrave" unicode="&#xe0;" horiz-adv-x="432" 
d="M29 312q0 38 15 72.5t40.5 60t60 40.5t73.5 15t73 -15t59.5 -40.5t40.5 -60t15 -72.5v-250q0 -26 -18.5 -44t-41.5 -18q-11 0 -22.5 5.5t-19.5 10.5q-20 -10 -41 -15t-45 -5q-39 0 -73 15t-60 40.5t-41 60t-15 72.5v128zM152 183q0 -27 19.5 -45.5t46.5 -18.5
q26 0 46 18.5t20 44.5v130q0 27 -19.5 46t-46.5 19q-28 0 -47 -19t-19 -46v-129zM128 613q-8 12 -8 31q0 23 17 42.5t44 19.5q15 0 30 -8.5t24 -22.5l34 -62q4 -8 6.5 -15.5t2.5 -15.5q0 -25 -17.5 -43t-44.5 -18q-16 0 -30 7t-22 22z" />
    <glyph glyph-name="aacute" unicode="&#xe1;" horiz-adv-x="432" 
d="M29 312q0 38 15 72.5t40.5 60t60 40.5t73.5 15t73 -15t59.5 -40.5t40.5 -60t15 -72.5v-250q0 -26 -18.5 -44t-41.5 -18q-11 0 -22.5 5.5t-19.5 10.5q-20 -10 -41 -15t-45 -5q-39 0 -73 15t-60 40.5t-41 60t-15 72.5v128zM152 183q0 -27 19.5 -45.5t46.5 -18.5
q26 0 46 18.5t20 44.5v130q0 27 -19.5 46t-46.5 19q-28 0 -47 -19t-19 -46v-129zM210 677q17 30 52 30q27 0 44 -18.5t17 -41.5q0 -8 -1.5 -16.5t-7.5 -16.5l-36 -63q-19 -29 -51 -29q-27 0 -45 17.5t-18 42.5q0 17 9 32z" />
    <glyph glyph-name="acircumflex" unicode="&#xe2;" horiz-adv-x="432" 
d="M29 312q0 38 15 72.5t40.5 60t60 40.5t73.5 15t73 -15t59.5 -40.5t40.5 -60t15 -72.5v-250q0 -26 -18.5 -44t-41.5 -18q-11 0 -22.5 5.5t-19.5 10.5q-20 -10 -41 -15t-45 -5q-39 0 -73 15t-60 40.5t-41 60t-15 72.5v128zM152 183q0 -27 19.5 -45.5t46.5 -18.5
q26 0 46 18.5t20 44.5v130q0 27 -19.5 46t-46.5 19q-28 0 -47 -19t-19 -46v-129zM191 533q-17 -11 -34 -11q-23 0 -41.5 17.5t-18.5 43.5q0 15 6.5 28.5t20.5 22.5l74 49q3 1 7 3q8 4 13 4t13 -4q4 -2 7 -3l74 -49q14 -9 20.5 -22.5t6.5 -28.5q0 -26 -18.5 -43.5
t-41.5 -17.5q-17 0 -34 11l-27 18z" />
    <glyph glyph-name="atilde" unicode="&#xe3;" horiz-adv-x="432" 
d="M29 312q0 38 15 72.5t40.5 60t60 40.5t73.5 15t73 -15t59.5 -40.5t40.5 -60t15 -72.5v-250q0 -26 -18.5 -44t-41.5 -18q-11 0 -22.5 5.5t-19.5 10.5q-20 -10 -41 -15t-45 -5q-39 0 -73 15t-60 40.5t-41 60t-15 72.5v128zM152 183q0 -27 19.5 -45.5t46.5 -18.5
q26 0 46 18.5t20 44.5v130q0 27 -19.5 46t-46.5 19q-28 0 -47 -19t-19 -46v-129zM76 593q0 22 11.5 36t28 22.5t33.5 12t29 3.5q18 0 34.5 -8t33.5 -8t29.5 7.5t28.5 7.5q25 0 43.5 -17.5t18.5 -43.5q0 -21 -12.5 -35.5t-30 -22.5t-36.5 -11.5t-32 -3.5q-18 0 -33 5.5
t-30 5.5t-27 -5t-26 -5q-24 0 -43.5 17.5t-19.5 42.5z" />
    <glyph glyph-name="adieresis" unicode="&#xe4;" horiz-adv-x="432" 
d="M29 312q0 38 15 72.5t40.5 60t60 40.5t73.5 15t73 -15t59.5 -40.5t40.5 -60t15 -72.5v-250q0 -26 -18.5 -44t-41.5 -18q-11 0 -22.5 5.5t-19.5 10.5q-20 -10 -41 -15t-45 -5q-39 0 -73 15t-60 40.5t-41 60t-15 72.5v128zM152 183q0 -27 19.5 -45.5t46.5 -18.5
q26 0 46 18.5t20 44.5v130q0 27 -19.5 46t-46.5 19q-28 0 -47 -19t-19 -46v-129zM93 608q0 26 18 44t42 18q25 0 43.5 -18t18.5 -44v-26q0 -24 -18 -42t-44 -18q-23 0 -41.5 18t-18.5 42v26zM226 608q0 26 18 44t43 18q24 0 42.5 -18t18.5 -44v-26q0 -24 -17.5 -42
t-43.5 -18q-24 0 -42.5 18t-18.5 42v26z" />
    <glyph glyph-name="aring" unicode="&#xe5;" horiz-adv-x="432" 
d="M212 733q21 0 40.5 -8.5t34 -22.5t23 -34t8.5 -42q0 -21 -8.5 -40.5t-23 -33.5t-34 -22.5t-40.5 -8.5q-22 0 -41.5 8.5t-33.5 22.5t-22.5 33.5t-8.5 40.5q0 22 8.5 42t22.5 34t33.5 22.5t41.5 8.5zM197 626q0 -6 4.5 -10.5t10.5 -4.5t10.5 4.5t4.5 10.5t-4.5 10.5
t-10.5 4.5t-10.5 -4.5t-4.5 -10.5zM29 312q0 38 15 72.5t40.5 60t60 40.5t73.5 15t73 -15t59.5 -40.5t40.5 -60t15 -72.5v-250q0 -26 -18.5 -44t-41.5 -18q-11 0 -22.5 5.5t-19.5 10.5q-20 -10 -41 -15t-45 -5q-39 0 -73 15t-60 40.5t-41 60t-15 72.5v128zM152 183
q0 -27 19.5 -45.5t46.5 -18.5q26 0 46 18.5t20 44.5v130q0 27 -19.5 46t-46.5 19q-28 0 -47 -19t-19 -46v-129z" />
    <glyph glyph-name="egrave" unicode="&#xe8;" 
d="M29 312q0 38 15 72.5t40.5 60t60 40.5t73.5 15t73 -15t59.5 -40.5t40.5 -60t15 -72.5v-64q0 -26 -18 -43.5t-42 -17.5h-194q0 -29 19.5 -48.5t46.5 -19.5q10 0 23 2.5t24 16.5q9 11 24.5 21.5t34.5 10.5q20 0 38.5 -17.5t18.5 -41.5q0 -18 -12.5 -38t-34 -37t-51.5 -28.5
t-65 -11.5q-39 0 -73 15t-60 40.5t-41 60t-15 72.5v128zM152 310h132q0 29 -19.5 48t-46.5 19q-28 0 -47 -19t-19 -48zM133 614q-8 12 -8 31q0 23 17 42.5t44 19.5q15 0 30 -8.5t24 -22.5l34 -62q4 -8 6.5 -15.5t2.5 -15.5q0 -25 -17.5 -43t-44.5 -18q-16 0 -30 7t-22 22z
" />
    <glyph glyph-name="eacute" unicode="&#xe9;" 
d="M29 312q0 38 15 72.5t40.5 60t60 40.5t73.5 15t73 -15t59.5 -40.5t40.5 -60t15 -72.5v-64q0 -26 -18 -43.5t-42 -17.5h-194q0 -29 19.5 -48.5t46.5 -19.5q10 0 23 2.5t24 16.5q9 11 24.5 21.5t34.5 10.5q20 0 38.5 -17.5t18.5 -41.5q0 -18 -12.5 -38t-34 -37t-51.5 -28.5
t-65 -11.5q-39 0 -73 15t-60 40.5t-41 60t-15 72.5v128zM152 310h132q0 29 -19.5 48t-46.5 19q-28 0 -47 -19t-19 -48zM195 677q17 30 52 30q27 0 44 -18.5t17 -41.5q0 -8 -1.5 -16.5t-7.5 -16.5l-36 -63q-19 -29 -51 -29q-27 0 -45 17.5t-18 42.5q0 17 9 32z" />
    <glyph glyph-name="ecircumflex" unicode="&#xea;" 
d="M29 312q0 38 15 72.5t40.5 60t60 40.5t73.5 15t73 -15t59.5 -40.5t40.5 -60t15 -72.5v-64q0 -26 -18 -43.5t-42 -17.5h-194q0 -29 19.5 -48.5t46.5 -19.5q10 0 23 2.5t24 16.5q9 11 24.5 21.5t34.5 10.5q20 0 38.5 -17.5t18.5 -41.5q0 -18 -12.5 -38t-34 -37t-51.5 -28.5
t-65 -11.5q-39 0 -73 15t-60 40.5t-41 60t-15 72.5v128zM152 310h132q0 29 -19.5 48t-46.5 19q-28 0 -47 -19t-19 -48zM188 532q-17 -11 -34 -11q-23 0 -41.5 17.5t-18.5 43.5q0 15 6.5 28.5t20.5 22.5l74 49q3 1 7 3q8 4 13 4t13 -4q4 -2 7 -3l74 -49q14 -9 20.5 -22.5
t6.5 -28.5q0 -26 -18.5 -43.5t-41.5 -17.5q-17 0 -34 11l-27 18z" />
    <glyph glyph-name="edieresis" unicode="&#xeb;" 
d="M29 312q0 38 15 72.5t40.5 60t60 40.5t73.5 15t73 -15t59.5 -40.5t40.5 -60t15 -72.5v-64q0 -26 -18 -43.5t-42 -17.5h-194q0 -29 19.5 -48.5t46.5 -19.5q10 0 23 2.5t24 16.5q9 11 24.5 21.5t34.5 10.5q20 0 38.5 -17.5t18.5 -41.5q0 -18 -12.5 -38t-34 -37t-51.5 -28.5
t-65 -11.5q-39 0 -73 15t-60 40.5t-41 60t-15 72.5v128zM152 310h132q0 29 -19.5 48t-46.5 19q-28 0 -47 -19t-19 -48zM87 608q0 26 18 44t42 18q25 0 43.5 -18t18.5 -44v-26q0 -24 -18 -42t-44 -18q-23 0 -41.5 18t-18.5 42v26zM220 608q0 26 18 44t43 18q24 0 42.5 -18
t18.5 -44v-26q0 -24 -17.5 -42t-43.5 -18q-24 0 -42.5 18t-18.5 42v26z" />
    <glyph glyph-name="igrave" unicode="&#xec;" horiz-adv-x="188" 
d="M33 439q0 26 18 43.5t42 17.5q25 0 43.5 -17.5t18.5 -43.5v-381q0 -26 -18 -44t-44 -18q-24 0 -42 18t-18 44v381zM0 615q-8 12 -8 31q0 23 17 42.5t44 19.5q15 0 30 -8.5t24 -22.5l34 -62q4 -8 6.5 -15.5t2.5 -15.5q0 -25 -17.5 -43t-44.5 -18q-16 0 -30 7t-22 22z" />
    <glyph glyph-name="iacute" unicode="&#xed;" horiz-adv-x="188" 
d="M33 439q0 26 18 43.5t42 17.5q25 0 43.5 -17.5t18.5 -43.5v-381q0 -26 -18 -44t-44 -18q-24 0 -42 18t-18 44v381zM78 675q17 30 52 30q27 0 44 -18.5t17 -41.5q0 -8 -1.5 -16.5t-7.5 -16.5l-36 -63q-19 -29 -51 -29q-27 0 -45 17.5t-18 42.5q0 17 9 32z" />
    <glyph glyph-name="icircumflex" unicode="&#xee;" horiz-adv-x="188" 
d="M33 439q0 26 18 43.5t42 17.5q25 0 43.5 -17.5t18.5 -43.5v-381q0 -26 -18 -44t-44 -18q-24 0 -42 18t-18 44v381zM68 536q-17 -11 -34 -11q-23 0 -41.5 17.5t-18.5 43.5q0 15 6.5 28.5t20.5 22.5l74 49q3 1 7 3q8 4 13 4t13 -4q4 -2 7 -3l74 -49q14 -9 20.5 -22.5
t6.5 -28.5q0 -26 -18.5 -43.5t-41.5 -17.5q-17 0 -34 11l-27 18z" />
    <glyph glyph-name="eth" unicode="&#xf0;" horiz-adv-x="463" 
d="M25 477q0 42 16 79.5t44 65t65.5 44t80.5 16.5q42 0 79.5 -16.5t65 -44t44 -65t16.5 -79.5v-292q0 -42 -16 -79.5t-44 -65.5t-65 -44.5t-80 -16.5q-24 0 -53 8t-54 22t-42 34t-17 43q0 26 18 43.5t43 17.5q16 0 28 -7t23.5 -15t24 -15t29.5 -7q32 0 55 20.5t27 50.5
q-18 -9 -38.5 -13t-43.5 -4q-43 0 -80.5 16t-65.5 44t-44 65t-16 79v116zM147 361q0 -35 24.5 -59t59.5 -24t59 23.5t24 56.5v119q0 34 -24 58t-59 24q-18 0 -33 -6.5t-26.5 -17.5t-18 -26t-6.5 -32v-116z" />
    <glyph glyph-name="ntilde" unicode="&#xf1;" horiz-adv-x="436" 
d="M32 312q0 38 15 72.5t40.5 60t60 40.5t73.5 15t73 -15t59.5 -40.5t40.5 -60t15 -72.5v-254q0 -26 -18.5 -44t-42.5 -18q-25 0 -43 18t-18 44v254q0 27 -19.5 46t-46.5 19q-28 0 -47.5 -19t-19.5 -46v-254q0 -26 -18 -44t-42 -18q-26 0 -44 18t-18 44v254zM73 581
q0 22 11.5 36t28 22.5t33.5 12t29 3.5q18 0 34.5 -8t33.5 -8t29.5 7.5t28.5 7.5q25 0 43.5 -17.5t18.5 -43.5q0 -21 -12.5 -35.5t-30 -22.5t-36.5 -11.5t-32 -3.5q-18 0 -33 5.5t-30 5.5t-27 -5t-26 -5q-24 0 -43.5 17.5t-19.5 42.5z" />
    <glyph glyph-name="ograve" unicode="&#xf2;" 
d="M29 312q0 38 15 72.5t40.5 60t60 40.5t73.5 15t73 -15t59.5 -40.5t40.5 -60t15 -72.5v-128q0 -38 -14.5 -72.5t-40 -60t-60 -40.5t-73.5 -15t-73 15t-60 40.5t-41 60t-15 72.5v128zM152 184q0 -27 19.5 -46t46.5 -19q28 0 47 19t19 46v128q0 27 -19.5 46t-46.5 19
q-28 0 -47 -19t-19 -46v-128zM129 611q-8 12 -8 31q0 23 17 42.5t44 19.5q15 0 30 -8.5t24 -22.5l34 -62q4 -8 6.5 -15.5t2.5 -15.5q0 -25 -17.5 -43t-44.5 -18q-16 0 -30 7t-22 22z" />
    <glyph glyph-name="oacute" unicode="&#xf3;" 
d="M29 312q0 38 15 72.5t40.5 60t60 40.5t73.5 15t73 -15t59.5 -40.5t40.5 -60t15 -72.5v-128q0 -38 -14.5 -72.5t-40 -60t-60 -40.5t-73.5 -15t-73 15t-60 40.5t-41 60t-15 72.5v128zM152 184q0 -27 19.5 -46t46.5 -19q28 0 47 19t19 46v128q0 27 -19.5 46t-46.5 19
q-28 0 -47 -19t-19 -46v-128zM200 675q17 30 52 30q27 0 44 -18.5t17 -41.5q0 -8 -1.5 -16.5t-7.5 -16.5l-36 -63q-19 -29 -51 -29q-27 0 -45 17.5t-18 42.5q0 17 9 32z" />
    <glyph glyph-name="ocircumflex" unicode="&#xf4;" 
d="M29 312q0 38 15 72.5t40.5 60t60 40.5t73.5 15t73 -15t59.5 -40.5t40.5 -60t15 -72.5v-128q0 -38 -14.5 -72.5t-40 -60t-60 -40.5t-73.5 -15t-73 15t-60 40.5t-41 60t-15 72.5v128zM152 184q0 -27 19.5 -46t46.5 -19q28 0 47 19t19 46v128q0 27 -19.5 46t-46.5 19
q-28 0 -47 -19t-19 -46v-128zM188 532q-17 -11 -34 -11q-23 0 -41.5 17.5t-18.5 43.5q0 15 6.5 28.5t20.5 22.5l74 49q3 1 7 3q8 4 13 4t13 -4q4 -2 7 -3l74 -49q14 -9 20.5 -22.5t6.5 -28.5q0 -26 -18.5 -43.5t-41.5 -17.5q-17 0 -34 11l-27 18z" />
    <glyph glyph-name="otilde" unicode="&#xf5;" 
d="M29 312q0 38 15 72.5t40.5 60t60 40.5t73.5 15t73 -15t59.5 -40.5t40.5 -60t15 -72.5v-128q0 -38 -14.5 -72.5t-40 -60t-60 -40.5t-73.5 -15t-73 15t-60 40.5t-41 60t-15 72.5v128zM152 184q0 -27 19.5 -46t46.5 -19q28 0 47 19t19 46v128q0 27 -19.5 46t-46.5 19
q-28 0 -47 -19t-19 -46v-128zM70 585q0 22 11.5 36t28 22.5t33.5 12t29 3.5q18 0 34.5 -8t33.5 -8t29.5 7.5t28.5 7.5q25 0 43.5 -17.5t18.5 -43.5q0 -21 -12.5 -35.5t-30 -22.5t-36.5 -11.5t-32 -3.5q-18 0 -33 5.5t-30 5.5t-27 -5t-26 -5q-24 0 -43.5 17.5t-19.5 42.5z
" />
    <glyph glyph-name="udieresis" unicode="&#xfc;" horiz-adv-x="436" 
d="M32 439q0 26 18 43.5t44 17.5q24 0 42 -17.5t18 -43.5v-255q0 -27 19.5 -46t47.5 -19q27 0 46.5 19t19.5 46v255q0 26 18 43.5t43 17.5q24 0 42.5 -17.5t18.5 -43.5v-255q0 -38 -15 -72.5t-40.5 -60t-59.5 -40.5t-73 -15t-73.5 15t-60 40.5t-40.5 60t-15 72.5v255z
M90 609q0 26 18 44t42 18q25 0 43.5 -18t18.5 -44v-26q0 -24 -18 -42t-44 -18q-23 0 -41.5 18t-18.5 42v26zM223 609q0 26 18 44t43 18q24 0 42.5 -18t18.5 -44v-26q0 -24 -17.5 -42t-43.5 -18q-24 0 -42.5 18t-18.5 42v26z" />
    <glyph glyph-name="yacute" unicode="&#xfd;" horiz-adv-x="436" 
d="M32 439q0 26 18 43.5t44 17.5q25 0 43.5 -17.5t18.5 -43.5v-255q0 -27 18.5 -46t46.5 -19q27 0 46.5 19t19.5 46v255q0 26 18 43.5t44 17.5q24 0 42 -17.5t18 -43.5v-255q0 -63 -35.5 -111t-91.5 -67v-101q0 -26 -17.5 -44t-43.5 -18q-24 0 -42.5 18t-18.5 44v101
q-55 19 -91.5 67t-36.5 111v255zM205 678q17 30 52 30q27 0 44 -18.5t17 -41.5q0 -8 -1.5 -16.5t-7.5 -16.5l-36 -63q-19 -29 -51 -29q-27 0 -45 17.5t-18 42.5q0 17 9 32z" />
    <glyph glyph-name="odieresis" unicode="&#xf6;" 
d="M29 312q0 38 15 72.5t40.5 60t60 40.5t73.5 15t73 -15t59.5 -40.5t40.5 -60t15 -72.5v-128q0 -38 -14.5 -72.5t-40 -60t-60 -40.5t-73.5 -15t-73 15t-60 40.5t-41 60t-15 72.5v128zM152 184q0 -27 19.5 -46t46.5 -19q28 0 47 19t19 46v128q0 27 -19.5 46t-46.5 19
q-28 0 -47 -19t-19 -46v-128zM87 607q0 26 18 44t42 18q25 0 43.5 -18t18.5 -44v-26q0 -24 -18 -42t-44 -18q-23 0 -41.5 18t-18.5 42v26zM220 607q0 26 18 44t43 18q24 0 42.5 -18t18.5 -44v-26q0 -24 -17.5 -42t-43.5 -18q-24 0 -42.5 18t-18.5 42v26z" />
    <glyph glyph-name="ydieresis" unicode="&#xff;" horiz-adv-x="436" 
d="M32 439q0 26 18 43.5t44 17.5q25 0 43.5 -17.5t18.5 -43.5v-255q0 -27 18.5 -46t46.5 -19q27 0 46.5 19t19.5 46v255q0 26 18 43.5t44 17.5q24 0 42 -17.5t18 -43.5v-255q0 -63 -35.5 -111t-91.5 -67v-101q0 -26 -17.5 -44t-43.5 -18q-24 0 -42.5 18t-18.5 44v101
q-55 19 -91.5 67t-36.5 111v255zM94 612q0 26 18 44t42 18q25 0 43.5 -18t18.5 -44v-26q0 -24 -18 -42t-44 -18q-23 0 -41.5 18t-18.5 42v26zM227 612q0 26 18 44t43 18q24 0 42.5 -18t18.5 -44v-26q0 -24 -17.5 -42t-43.5 -18q-24 0 -42.5 18t-18.5 42v26z" />
    <glyph glyph-name="ugrave" unicode="&#xf9;" horiz-adv-x="436" 
d="M32 439q0 26 18 43.5t44 17.5q24 0 42 -17.5t18 -43.5v-255q0 -27 19.5 -46t47.5 -19q27 0 46.5 19t19.5 46v255q0 26 18 43.5t43 17.5q24 0 42.5 -17.5t18.5 -43.5v-255q0 -38 -15 -72.5t-40.5 -60t-59.5 -40.5t-73 -15t-73.5 15t-60 40.5t-40.5 60t-15 72.5v255z
M130 615q-8 12 -8 31q0 23 17 42.5t44 19.5q15 0 30 -8.5t24 -22.5l34 -62q4 -8 6.5 -15.5t2.5 -15.5q0 -25 -17.5 -43t-44.5 -18q-16 0 -30 7t-22 22z" />
    <glyph glyph-name="ucircumflex" unicode="&#xfb;" horiz-adv-x="436" 
d="M32 439q0 26 18 43.5t44 17.5q24 0 42 -17.5t18 -43.5v-255q0 -27 19.5 -46t47.5 -19q27 0 46.5 19t19.5 46v255q0 26 18 43.5t43 17.5q24 0 42.5 -17.5t18.5 -43.5v-255q0 -38 -15 -72.5t-40.5 -60t-59.5 -40.5t-73 -15t-73.5 15t-60 40.5t-40.5 60t-15 72.5v255z
M191 532q-17 -11 -34 -11q-23 0 -41.5 17.5t-18.5 43.5q0 15 6.5 28.5t20.5 22.5l74 49q3 1 7 3q8 4 13 4t13 -4q4 -2 7 -3l74 -49q14 -9 20.5 -22.5t6.5 -28.5q0 -26 -18.5 -43.5t-41.5 -17.5q-17 0 -34 11l-27 18z" />
    <glyph glyph-name="uacute" unicode="&#xfa;" horiz-adv-x="436" 
d="M32 439q0 26 18 43.5t44 17.5q24 0 42 -17.5t18 -43.5v-255q0 -27 19.5 -46t47.5 -19q27 0 46.5 19t19.5 46v255q0 26 18 43.5t43 17.5q24 0 42.5 -17.5t18.5 -43.5v-255q0 -38 -15 -72.5t-40.5 -60t-59.5 -40.5t-73 -15t-73.5 15t-60 40.5t-40.5 60t-15 72.5v255z
M203 676q17 30 52 30q27 0 44 -18.5t17 -41.5q0 -8 -1.5 -16.5t-7.5 -16.5l-36 -63q-19 -29 -51 -29q-27 0 -45 17.5t-18 42.5q0 17 9 32z" />
    <glyph glyph-name="idieresis" unicode="&#xef;" horiz-adv-x="234" 
d="M53 439q0 26 18 43.5t42 17.5q25 0 43.5 -17.5t18.5 -43.5v-381q0 -26 -18 -44t-44 -18q-24 0 -42 18t-18 44v381zM-12 608q0 26 18 44t42 18q25 0 43.5 -18t18.5 -44v-26q0 -24 -18 -42t-44 -18q-23 0 -41.5 18t-18.5 42v26zM121 608q0 26 18 44t43 18q24 0 42.5 -18
t18.5 -44v-26q0 -24 -17.5 -42t-43.5 -18q-24 0 -42.5 18t-18.5 42v26z" />
    <glyph glyph-name="ccedilla" unicode="&#xe7;" horiz-adv-x="415" 
d="M29 312q0 40 15.5 74t41.5 59.5t61.5 40t74.5 14.5q7 0 28.5 -3t47.5 -14.5t51.5 -35t42.5 -64.5q3 -5 4 -11t1 -11q0 -26 -18 -44t-44 -18q-22 0 -34 12t-23 27t-24 27t-36 12q-28 0 -47.5 -19t-19.5 -46v-128q0 -27 19.5 -46t47.5 -19q23 0 35.5 12t23 27t23 27
t35.5 12q26 0 44 -18.5t18 -42.5q0 -12 -6 -24q-19 -42 -46 -65.5t-53 -35t-46 -13.5t-26 -2q-39 0 -74 15t-61 41t-41 60t-15 72v128zM159 -10q0 11 7.5 19t19.5 8h68q11 0 19 -8t8 -19v-16q0 -7 3.5 -16t8 -19t8 -20.5t3.5 -19.5q0 -16 -6 -30t-21 -24.5t-40.5 -16.5
t-65.5 -6q-24 0 -42 17.5t-18 42.5q0 16 6 26.5t15 17t20 10t21 5.5q-6 4 -10 13.5t-4 19.5v16z" />
    <glyph glyph-name="Ccedilla" unicode="&#xc7;" horiz-adv-x="524" 
d="M28 437q0 51 19.5 95.5t53 78t78.5 52.5t96 19q75 0 135 -40.5t89 -104.5q5 -8 6.5 -16.5t1.5 -16.5q0 -23 -16.5 -42.5t-45.5 -19.5q-18 0 -34 9.5t-24 28.5q-14 32 -43.5 54t-68.5 22q-25 0 -47 -9.5t-38.5 -25.5t-26 -37.5t-9.5 -46.5v-213q0 -25 9.5 -46.5t26 -37.5
t38.5 -25.5t47 -9.5q38 0 68.5 22t44.5 55q8 22 23.5 29.5t33.5 7.5q29 0 45.5 -19.5t16.5 -42.5q0 -14 -5 -24q-14 -32 -37 -60t-52.5 -49t-64.5 -33t-73 -12q-51 0 -95.5 19.5t-78.5 53t-53.5 78t-19.5 94.5v213zM213 -3q0 11 7.5 19t19.5 8h68q11 0 19 -8t8 -19v-16
q0 -7 3.5 -16t8 -19t8 -20.5t3.5 -19.5q0 -16 -6 -30t-21 -24.5t-40.5 -16.5t-65.5 -6q-24 0 -42 17.5t-18 42.5q0 16 6 26.5t15 17t20 10t21 5.5q-6 4 -10 13.5t-4 19.5v16z" />
    <glyph glyph-name="oslash" unicode="&#xf8;" 
d="M29 312q0 38 15 72.5t40.5 60t60 40.5t73.5 15t73 -15t59.5 -40.5t40.5 -60t15 -72.5v-128q0 -38 -14.5 -72.5t-40 -60t-60 -40.5t-73.5 -15t-73 15t-60 40.5t-41 60t-15 72.5v128zM152 184q0 -27 19.5 -46t46.5 -19q28 0 47 19t19 46v128q0 27 -19.5 46t-46.5 19
q-28 0 -47 -19t-19 -46v-128zM335 571q10 17 24 23t29 6q26 0 43 -18t17 -42q0 -8 -1.5 -16.5t-5.5 -15.5l-323 -546q-11 -18 -24 -24t-28 -6q-29 0 -45 19t-16 44q0 17 7 31z" />
    <glyph glyph-name="macron" unicode="&#xaf;" horiz-adv-x="332" 
d="M76 526q-25 0 -43.5 18t-18.5 44q0 24 18.5 42t43.5 18h167q24 0 42 -17.5t18 -42.5t-18 -43.5t-42 -18.5h-167z" />
    <glyph glyph-name="wacute" unicode="&#x1e83;" horiz-adv-x="663" 
d="M32 439q0 26 18.5 43.5t42.5 17.5q26 0 44 -17.5t18 -43.5v-255q0 -27 15.5 -46t40.5 -19q28 0 43 19t15 46v255q0 26 18.5 43.5t42.5 17.5q26 0 43.5 -17.5t17.5 -43.5v-255q0 -27 16 -46t42 -19t41 19t15 46v255q0 26 18.5 43.5t43.5 17.5t43 -17.5t18 -43.5v-255
q0 -38 -13 -72.5t-37 -60t-57 -40.5t-72 -15q-36 0 -66 12t-53 33q-48 -45 -119 -45q-39 0 -72 15t-56.5 40.5t-37 60t-13.5 72.5v255zM314 678q17 30 52 30q27 0 44 -18.5t17 -41.5q0 -8 -1.5 -16.5t-7.5 -16.5l-36 -63q-19 -29 -51 -29q-27 0 -45 17.5t-18 42.5q0 17 9 32
z" />
    <glyph glyph-name="Ecaron" unicode="&#x11a;" horiz-adv-x="555" 
d="M304 838q17 11 34 11q23 0 41.5 -17.5t18.5 -43.5q0 -15 -6.5 -28.5t-20.5 -22.5l-74 -49q-3 -2 -7 -4q-6 -3 -13 -3t-13 3q-4 2 -6 4l-75 49q-14 9 -20.5 22.5t-6.5 28.5q0 26 18.5 43.5t41.5 17.5q17 0 34 -11l27 -18zM35 597q0 26 18 44.5t45 18.5h367q26 0 44 -18.5
t18 -44.5q0 -25 -18 -43.5t-44 -18.5h-305v-152h198q26 0 44 -18t18 -44t-18 -44.5t-44 -18.5h-198v-133h305q26 0 44 -18t18 -44t-18 -44.5t-44 -18.5h-367q-26 0 -44.5 18.5t-18.5 44.5v534z" />
    <glyph glyph-name="Edotaccent" unicode="&#x116;" horiz-adv-x="555" 
d="M216 743q0 26 17.5 43.5t43.5 17.5q24 0 42.5 -17.5t18.5 -43.5q0 -25 -18 -43t-43 -18q-24 0 -42.5 18t-18.5 43zM35 597q0 26 18 44.5t45 18.5h367q26 0 44 -18.5t18 -44.5q0 -25 -18 -43.5t-44 -18.5h-305v-152h198q26 0 44 -18t18 -44t-18 -44.5t-44 -18.5h-198v-133
h305q26 0 44 -18t18 -44t-18 -44.5t-44 -18.5h-367q-26 0 -44.5 18.5t-18.5 44.5v534z" />
    <glyph glyph-name="lcaron" unicode="&#x13e;" horiz-adv-x="381" 
d="M33 592q0 26 18 43.5t42 17.5q25 0 43.5 -17.5t18.5 -43.5v-530q0 -26 -18 -44t-44 -18q-24 0 -42 18t-18 44v530zM242 591q0 26 18.5 44t43.5 18q24 0 42.5 -18t18.5 -44v-70q0 -23 -19 -42t-42 -19h-35q-26 0 -44 18t-18 43q0 18 10 33t25 23v14z" />
    <glyph glyph-name="Oacute" unicode="&#xd3;" horiz-adv-x="551" 
d="M28 436q0 51 19.5 96t53.5 78t78.5 52.5t95.5 19.5q50 0 95 -19.5t78.5 -52.5t53.5 -78t20 -96v-212q0 -50 -19.5 -94.5t-53.5 -78t-78.5 -53t-95.5 -19.5t-95.5 19.5t-78.5 53t-53.5 78t-19.5 94.5v212zM155 224q0 -25 9.5 -46.5t26 -37.5t38 -25.5t46.5 -9.5t47 9.5
t38 25.5t25.5 37.5t9.5 46.5v212q0 25 -9.5 46.5t-26 37.5t-38 25.5t-46.5 9.5t-47 -9.5t-38 -25.5t-25.5 -37.5t-9.5 -46.5v-212zM245 854q17 30 52 30q27 0 44 -18.5t17 -41.5q0 -8 -1.5 -16.5t-7.5 -16.5l-36 -63q-19 -29 -51 -29q-27 0 -45 17.5t-18 42.5q0 17 9 32z
" />
    <glyph glyph-name="Ocircumflex" unicode="&#xd4;" horiz-adv-x="551" 
d="M28 436q0 51 19.5 96t53.5 78t78.5 52.5t95.5 19.5q50 0 95 -19.5t78.5 -52.5t53.5 -78t20 -96v-212q0 -50 -19.5 -94.5t-53.5 -78t-78.5 -53t-95.5 -19.5t-95.5 19.5t-78.5 53t-53.5 78t-19.5 94.5v212zM155 224q0 -25 9.5 -46.5t26 -37.5t38 -25.5t46.5 -9.5t47 9.5
t38 25.5t25.5 37.5t9.5 46.5v212q0 25 -9.5 46.5t-26 37.5t-38 25.5t-46.5 9.5t-47 -9.5t-38 -25.5t-25.5 -37.5t-9.5 -46.5v-212zM246 708q-17 -11 -34 -11q-23 0 -41.5 17.5t-18.5 43.5q0 15 6.5 28.5t20.5 22.5l74 49q3 1 7 3q8 4 13 4t13 -4q4 -2 7 -3l74 -49
q14 -9 20.5 -22.5t6.5 -28.5q0 -26 -18.5 -43.5t-41.5 -17.5q-17 0 -34 11l-27 18z" />
    <glyph glyph-name="Odieresis" unicode="&#xd6;" horiz-adv-x="551" 
d="M28 436q0 51 19.5 96t53.5 78t78.5 52.5t95.5 19.5q50 0 95 -19.5t78.5 -52.5t53.5 -78t20 -96v-212q0 -50 -19.5 -94.5t-53.5 -78t-78.5 -53t-95.5 -19.5t-95.5 19.5t-78.5 53t-53.5 78t-19.5 94.5v212zM155 224q0 -25 9.5 -46.5t26 -37.5t38 -25.5t46.5 -9.5t47 9.5
t38 25.5t25.5 37.5t9.5 46.5v212q0 25 -9.5 46.5t-26 37.5t-38 25.5t-46.5 9.5t-47 -9.5t-38 -25.5t-25.5 -37.5t-9.5 -46.5v-212zM144 784q0 26 18 44t42 18q25 0 43.5 -18t18.5 -44v-26q0 -24 -18 -42t-44 -18q-23 0 -41.5 18t-18.5 42v26zM277 784q0 26 18 44t43 18
q24 0 42.5 -18t18.5 -44v-26q0 -24 -17.5 -42t-43.5 -18q-24 0 -42.5 18t-18.5 42v26z" />
    <glyph glyph-name="Ograve" unicode="&#xd2;" horiz-adv-x="551" 
d="M28 436q0 51 19.5 96t53.5 78t78.5 52.5t95.5 19.5q50 0 95 -19.5t78.5 -52.5t53.5 -78t20 -96v-212q0 -50 -19.5 -94.5t-53.5 -78t-78.5 -53t-95.5 -19.5t-95.5 19.5t-78.5 53t-53.5 78t-19.5 94.5v212zM155 224q0 -25 9.5 -46.5t26 -37.5t38 -25.5t46.5 -9.5t47 9.5
t38 25.5t25.5 37.5t9.5 46.5v212q0 25 -9.5 46.5t-26 37.5t-38 25.5t-46.5 9.5t-47 -9.5t-38 -25.5t-25.5 -37.5t-9.5 -46.5v-212zM182 788q-8 12 -8 31q0 23 17 42.5t44 19.5q15 0 30 -8.5t24 -22.5l34 -62q4 -8 6.5 -15.5t2.5 -15.5q0 -25 -17.5 -43t-44.5 -18
q-16 0 -30 7t-22 22z" />
    <glyph glyph-name="Oslash" unicode="&#xd8;" horiz-adv-x="551" 
d="M28 436q0 51 19.5 96t53.5 78t78.5 52.5t95.5 19.5q50 0 95 -19.5t78.5 -52.5t53.5 -78t20 -96v-212q0 -50 -19.5 -94.5t-53.5 -78t-78.5 -53t-95.5 -19.5t-95.5 19.5t-78.5 53t-53.5 78t-19.5 94.5v212zM155 224q0 -25 9.5 -46.5t26 -37.5t38 -25.5t46.5 -9.5t47 9.5
t38 25.5t25.5 37.5t9.5 46.5v212q0 25 -9.5 46.5t-26 37.5t-38 25.5t-46.5 9.5t-47 -9.5t-38 -25.5t-25.5 -37.5t-9.5 -46.5v-212zM384 635q10 17 24 23t29 6q26 0 43 -18t17 -42q0 -8 -1.5 -16.5t-5.5 -15.5l-323 -546q-11 -18 -24 -24t-28 -6q-29 0 -45 19t-16 44
q0 17 7 31z" />
    <glyph glyph-name="Otilde" unicode="&#xd5;" horiz-adv-x="551" 
d="M28 436q0 51 19.5 96t53.5 78t78.5 52.5t95.5 19.5q50 0 95 -19.5t78.5 -52.5t53.5 -78t20 -96v-212q0 -50 -19.5 -94.5t-53.5 -78t-78.5 -53t-95.5 -19.5t-95.5 19.5t-78.5 53t-53.5 78t-19.5 94.5v212zM155 224q0 -25 9.5 -46.5t26 -37.5t38 -25.5t46.5 -9.5t47 9.5
t38 25.5t25.5 37.5t9.5 46.5v212q0 25 -9.5 46.5t-26 37.5t-38 25.5t-46.5 9.5t-47 -9.5t-38 -25.5t-25.5 -37.5t-9.5 -46.5v-212zM145 759q0 22 11.5 36t28 22.5t33.5 12t29 3.5q18 0 34.5 -8t33.5 -8t29.5 7.5t28.5 7.5q25 0 43.5 -17.5t18.5 -43.5q0 -21 -12.5 -35.5
t-30 -22.5t-36.5 -11.5t-32 -3.5q-18 0 -33 5.5t-30 5.5t-27 -5t-26 -5q-24 0 -43.5 17.5t-19.5 42.5z" />
  </font>
</defs>
</svg>
